<?xml version="1.0" encoding="UTF-8" standalone="no"?>
<svg 
  xmlns="http://www.w3.org/2000/svg" version="1.1" 
  xmlns:xlink="http://www.w3.org/1999/xlink" viewBox="50 0 1622 1820">
  <defs>
    <g id="Keep">
      <rect fill="white" height="58" width="49" y="-24" x="-25"></rect>
      <path d="M 5,3 C 2,20 -6,29 -13,34 l 36,0 0,-58 -20,0 c 3,8 4,18 2,27 z" style="fill: #fecb86"></path>
      <path fill="none" stroke="black" stroke-width="5" d="m -25,-24 49,0 0,58 -49,0 z"></path>
      <path d="M -12,-6 c 0,-8 -6,-8 -6,0 c 2,0 3,0 6,0 z" stroke="black" stroke-width="2"></path>
      <path d="M 15,-6 c 0,-8 -6,-8 -6,0 c 2,0 3,0 6,0 z" stroke="black" stroke-width="2"></path>
      <rect fill="white" height="19" width="65" y="-43" x="-34"></rect>
      <path fill="#fecb86" d="m 26,-35 -6,0 0,-6 -6,0 0,6 -6,0 0,-6 -6,0 0,6 -3,0 c 2,3 3,7 5,12 l 28,0 0,-18 -6,0 0,6 0,0 z"></path>
      <path d="m -1,8 c -6,0 -11,11 -11,25 l 22,0 C 10,19 5,8 -1,8 z" stroke="black" stroke-width="2"></path>
      <path stroke="black" stroke-width="5" d="m -19,34 76,0"></path>
      <path fill="none" stroke="black" stroke-width="5" d="m 32,-24 0,-18 -6,0 0,0 0,6 -6,0 0,-6 -6,0 0,6 -6,0 0,-6 -6,0 0,6 -6,0 0,-6 -6,0 0,6 -6,0 0,-6 -6,0 0,6 -6,0 0,-6 -6,0 0,18 z"></path>
    </g>
    <g id="keep">
      <use xlink:href="#Keep" transform="scale(0.6)"></use>
    </g>
    <g id="tower">
      <use xlink:href="#Hill" transform="scale(0.9) translate(0,30)"></use>
      <use xlink:href="#Keep" transform="scale(0.5) translate(0,-10)"></use>
    </g>
    <g id="castle">
      <rect height="16.1" width="38.0" y="1.2" x="-20.0" fill="white"></rect>
      <path fill="#fecb86" d="m -0.6,17.2 22.6,0.1 0,-18.1 -19.0,0 C 4.5,4.8 -0.3,9.6 -0.6,17.2 z"></path>
      <path d="m -20.0,-0.8 42.4,0 0,18.1 -42.4,0 z" fill="none" stroke="black" stroke-width="2.4"></path>
      <rect height="8.5" width="50.2" y="-6.5" x="-24.2" fill="white"></rect>
      <path d="m 13.8,-4.1 -2.9,0 0,-2.9 -2.9,0 0,2.9 -2.9,0 0,-2.9 -2.9,0 0,2.9 -1.4,0 C 1.9,-2.7 3.1,-1.4 3.4,1.6 l 22.9,0 0,-8.6 -12.4,0 z" fill="#fecb86"></path>
      <path d="m 26.2,2.1 0,-8.6 -12.4,0 0,0 0,2.9 -2.9,0 0,-2.9 -2.9,0 0,2.9 -2.9,0 0,-2.9 -2.9,0 0,2.9 -2.9,0 0,-2.9 -2.9,0 0,2.9 -2.9,0 0,-2.9 -2.9,0 0,2.9 -2.9,0 0,-2.9 -12.4,0 0,8.6 z" fill="none" stroke="black" stroke-width="2.4"></path>
      <rect fill="white" x="-39.0" y="-10.3" width="23.3" height="27.6"></rect>
      <path d="m -24.7,2.5 c -1.4,8.1 -5.2,12.4 -8.6,14.8 l 17.1,0 0,-27.6 -9.5,0 c 1.4,3.8 1.9,8.6 1.0,12.9 z" fill="#fecb86"></path>
      <path fill="none" stroke="black" stroke-width="2.4" d="m -39.0,-10.3 23.3,0 0,27.6 -23.3,0 z"></path>
      <path stroke="black" stroke-width="1.0" d="m -32.8,-1.7 c 0,-3.8 -2.9,-3.8 -2.9,0 1.0,0 1.4,0 2.9,0 z"></path>
      <path stroke="black" stroke-width="1.0" d="m -20.0,-1.7 c 0,-3.8 -2.9,-3.8 -2.9,0 1.0,0 1.4,0 2.9,0 z"></path>
      <rect fill="white" x="-43.3" y="-19.4" width="31.0" height="9.0"></rect>
      <path fill="#fecb86" d="m -14.7,-15.5 -2.9,0 0,-2.9 -2.9,0 0,2.9 -2.9,0 0,-2.9 -2.9,0 0,2.9 -1.4,0 c 1.0,1.4 1.4,3.3 2.4,5.7 l 13.3,0 0,-8.6 -2.9,0 0,2.9 0,0 z"></path>
      <path d="m 1.0,4.9 c -2.9,0 -5.2,5.2 -5.2,11.9 l 10.5,0 c 0,-6.7 -2.4,-11.9 -5.2,-11.9 z" stroke="black" stroke-width="1.0"></path>
      <path stroke="black" stroke-width="2.4" d="m 18.1,17.3 36.2,0"></path>
      <path fill="none" stroke="black" stroke-width="2.4" d="m -11.9,-10.3 0,-8.6 -2.9,0 0,0 0,2.9 -2.9,0 0,-2.9 -2.9,0 0,2.9 -2.9,0 0,-2.9 -2.9,0 0,2.9 -2.9,0 0,-2.9 -2.9,0 0,2.9 -2.9,0 0,-2.9 -2.9,0 0,2.9 -2.9,0 0,-2.9 -2.9,0 0,8.6 z"></path>
      <rect fill="white" height="27.6" width="23.3" y="-10.3" x="18.1"></rect>
      <path fill="#fecb86" d="M 32.4,2.5 C 31.0,10.6 27.2,14.9 23.8,17.3 l 17.1,0 0,-27.6 -9.5,0 c 1.4,3.8 1.9,8.6 1.0,12.9 z"></path>
      <path fill="none" stroke="black" stroke-width="2.4" d="m 18.1,-10.3 23.3,0 0,27.6 -23.3,0 z"></path>
      <path stroke="black" stroke-width="1.0" d="m 24.3,-1.7 c 0,-3.8 -2.9,-3.8 -2.9,0 1.0,0 1.4,0 2.9,0 z"></path>
      <path stroke="black" stroke-width="1.0" d="m 37.2,-1.7 c 0,-3.8 -2.9,-3.8 -2.9,0 1.0,0 1.4,0 2.9,0 z"></path>
      <rect fill="white" height="9.0" width="31.0" y="-19.4" x="13.8"></rect>
      <path fill="#fecb86" d="m 42.4,-15.5 -2.9,0 0,-2.9 -2.9,0 0,2.9 -2.9,0 0,-2.9 -2.9,0 0,2.9 -1.4,0 c 1.0,1.4 1.4,3.3 2.4,5.7 l 13.3,0 0,-8.6 -2.9,0 0,2.9 0,0 z"></path>
      <path fill="none" stroke="black" stroke-width="2.4" d="m 45.3,-10.3 0,-8.6 -2.9,0 0,0 0,2.9 -2.9,0 0,-2.9 -2.9,0 0,2.9 -2.9,0 0,-2.9 -2.9,0 0,2.9 -2.9,0 0,-2.9 -2.9,0 0,2.9 -2.9,0 0,-2.9 -2.9,0 0,2.9 -2.9,0 0,-2.9 -2.9,0 0,8.6 z"></path>
    </g>
    <circle id="Thorp" fill="#ffd700" stroke="black" stroke-width="7" cx="0" cy="0" r="15"></circle>
    <g id="House">
      <rect fill="white" x="-15" y="-50" width="30" height="50"></rect>
      <path fill="#fecb86" d="M-10,0 C10,-20 10,-40 2,-50 h15 v50 z"></path>
      <path stroke="black" stroke-width="7" d="M-15,0 v-50 m-15,0 h60 m-15,0 v50 M0,0 v-37"></path>
    </g>
    <g id="Hut">
      <rect fill="white" x="-15" y="-40" width="30" height="40"></rect>
      <path fill="#fecb86" d="M-10,0 C10,-20 10,-40 2,-40 h15 v40 z"></path>
      <path stroke="black" stroke-width="7" d="M-15,0 v-40 m-15,0 h60 m-15,0 v40 M0,0 v-27"></path>
    </g>
    <path id="Flag" fill="white" stroke="black" stroke-width="7" d="M0,-50 l-3,-30 c-1,-10 8,-10 6,0 z"></path>
    <path id="Arrow" fill="black" stroke="black" stroke-width="3" d="M10,0 h10 v2 l4,-2 l-4,-2 v2 "></path>
    <g id="Star">
      <circle cx="0" cy="0" r="10"></circle>
      <use xlink:href="#Arrow"></use>
      <use xlink:href="#Arrow" transform="rotate(45)"></use>
      <use xlink:href="#Arrow" transform="rotate(90)"></use>
      <use xlink:href="#Arrow" transform="rotate(135)"></use>
      <use xlink:href="#Arrow" transform="rotate(180)"></use>
      <use xlink:href="#Arrow" transform="rotate(225)"></use>
      <use xlink:href="#Arrow" transform="rotate(270)"></use>
      <use xlink:href="#Arrow" transform="rotate(315)"></use>
    </g>
    <use id="thorp" xlink:href="#Thorp" transform="scale(0.7)"></use>
    <g id="village" transform="scale(0.7), translate(0,40)">
      <use xlink:href="#House"></use>
      <use xlink:href="#Thorp"></use>
      <use xlink:href="#Flag"></use>
    </g>
    <g id="town" transform="scale(0.7)">
      <g transform="translate(-10,40)">
        <use xlink:href="#House"></use>
        <use xlink:href="#Flag"></use>
        <use xlink:href="#Thorp"></use>
        <use xlink:href="#Hut" transform="translate(43,15)"></use>
        <path stroke="black" stroke-width="7" d="M0,15 h70"></path>
      </g>
    </g>
    <g id="large-town">
      <g transform="scale(0.7)">
        <g transform="translate(0,45)">
          <use xlink:href="#House" transform="translate(-40,0)"></use>
          <use xlink:href="#Flag" transform="translate(-40,0)"></use>
          <use xlink:href="#House" transform="translate(40,0)"></use>
          <use xlink:href="#Flag" transform="translate(40,0)"></use>
          <use xlink:href="#Thorp" transform="translate(0,-15)"></use>
          <path stroke="black" stroke-width="7" d="M-70,0 h140"></path>
        </g>
      </g>
    </g>
    <g id="city">
      <g transform="scale(0.7)">
        <g transform="translate(0,60)">
          <use xlink:href="#House" transform="translate(-40,0)"></use>
          <use xlink:href="#Flag" transform="translate(-40,0)"></use>
          <use xlink:href="#House" transform="translate(40,0)"></use>
          <use xlink:href="#Flag" transform="translate(40,0)"></use>
          <use xlink:href="#House" transform="translate(0,-15)"></use>
          <use xlink:href="#Flag" transform="translate(0,-15)"></use>
          <use xlink:href="#Thorp" transform="translate(0,-15)"></use>
          <path stroke="black" stroke-width="7" d="M-70,0 h140"></path>
        </g>
      </g>
    </g>
    <g id="shrine">
      <path transform="scale(0.7)" fill="none" stroke="black" stroke-width="7" d="M-20,20 v-40 h40 v40 M-20,-20 v-10 M20,-20 v-10 M-30,-30 h60"></path>
    </g>
    <g id="law" transform="scale(0.7) translate(-20,20)">
      <use xlink:href="#Arrow" transform="rotate(270) scale(3) translate(-5,0)"></use>
      <use xlink:href="#Thorp"></use>
      <use xlink:href="#Hut" transform="translate(40,15)"></use>
      <path stroke="black" stroke-width="7" d="M0,15 h70"></path>
    </g>
    <g id="chaos" transform="scale(0.7) translate(-20,40)">
      <use xlink:href="#Star" transform="scale(1.4) translate(0,-40)"></use>
      <use xlink:href="#Thorp"></use>
      <use xlink:href="#Hut" transform="translate(40,15)"></use>
      <path stroke="black" stroke-width="7" d="M0,15 h70"></path>
    </g>
    <g id="Tree">
      <path d="m 28,-2 c 0,20 -12,31 -27,31 -15,0 -27,-11 -27,-31 0,-20 12,-43 27,-43 15,0 27,22 27,43 z" fill="white"></path>
      <path d="m 6,-43 c 0,0 0,16 -4,19 -3,4 -4,15 -1,18 2,3 8,8 5,11 -3,3 -6,5 -5,9 0,4 8,6 -4,8 -11,2 -11,2 -11,2 0,0 13,9 26,2 14,-6 16,-29 16,-29 0,0 4,-21 -22,-41 z" fill="#39b54a"></path>
      <path d="m 28,-2 c 0,20 -12,31 -27,31 -15,0 -27,-11 -27,-31 0,-20 12,-43 27,-43 15,0 27,22 27,43 z" stroke="black" fill="none" stroke-width="6"></path>
      <rect x="-4" y="30" width="11" height="20" fill="#39b54a" stroke="black" stroke-width="6"></rect>
      <line x1="-4" y1="50" x2="29" y2="50" fill="#39b54a" stroke="black" stroke-width="6"></line>
    </g>
    <g id="tree">
      <use xlink:href="#Tree" transform="scale(0.6)"></use>
    </g>
    <g id="trees">
      <use xlink:href="#Tree" transform="scale(0.6) translate(-40,-10)"></use>
      <use xlink:href="#Tree" transform="scale(0.7) translate(30,-15)"></use>
      <use xlink:href="#Tree" transform="scale(0.55) translate(0,10)"></use>
    </g>
    <g id="forest">
      <use xlink:href="#Tree" transform="scale(0.5) translate(-20,-40)"></use>
      <use xlink:href="#Tree" transform="scale(0.5) translate(-60,-20)"></use>
      <use xlink:href="#Tree" transform="scale(0.5) translate(40,-40)"></use>
      <use xlink:href="#Tree" transform="scale(0.5) translate(80,-30)"></use>
      <use xlink:href="#Tree" transform="scale(0.5) translate(-40,10)"></use>
      <use xlink:href="#Tree" transform="scale(0.5) translate(-100,0)"></use>
      <use xlink:href="#Tree" transform="scale(0.5) translate(5,-15)"></use>
      <use xlink:href="#Tree" transform="scale(0.5) translate(50,-10)"></use>
      <use xlink:href="#Tree" transform="scale(0.5) translate(-60,30)"></use>
      <use xlink:href="#Tree" transform="scale(0.5) translate(30,20)"></use>
      <use xlink:href="#Tree" transform="scale(0.5) translate(-20,35)"></use>
      <use xlink:href="#Tree" transform="scale(0.5) translate(95,25)"></use>
    </g>
    <path id="fields" fill="none" stroke="black" stroke-width="2" d="M-40,0 L0,30 L40,0 L0,-30 L-40,0 M-30,-7.5 L10,22.5 M-20,-15 L20,15 M-10,-22.5 L30,7.5 M-30,7.5 L10,-22.5 M-20,15 L20,-15 M-10,22.5 L30,-7.5"></path>
    <g id="Bush">
      <path fill="white" d="m 15,-13 c 1,-2 2,-4 2,-7 0,-9 -8,-17 -18,-17 -10,0 -18,8 -18,17 0,2 1,4 1,6 -8,4 -13,11 -13,20 0,13 13,24 29,24 16,0 29,-11 29,-24 0,-8 -5,-15 -12,-19 z"></path>
      <path fill="#39b54a" d="m -16,26 c 0,0 16,-5 12,-21 -4,-17 -2,-17 0,-17 3,0 12,-8 12,-12 0,-5 -4,-2 -5,-5 0,-4 5,-5 9,3 4,8 5,6 1,16 7,4 8,-5 13,19 C 32,30 -8,38 -16,26 z"></path>
      <path fill="none" stroke="black" stroke-width="6" d="m 15,-13 c 1,-2 2,-4 2,-7 0,-9 -8,-17 -18,-17 -10,0 -18,8 -18,17 0,2 1,4 1,6 -8,4 -13,11 -13,20 0,13 13,24 29,24 16,0 29,-11 29,-24 0,-8 -5,-15 -12,-19 z"></path>
      <path d="m 41,34 c -16,0 -31,0 -47,0 0,-1 0,-2 0,-4" fill="none" stroke="black" stroke-width="6"></path>
    </g>
    <g id="bush">
      <use xlink:href="#Bush" transform="scale(0.6)"></use>
    </g>
    <g id="bushes">
      <use xlink:href="#Bush" transform="scale(0.5) translate(-30,0)"></use>
      <use xlink:href="#Bush" transform="scale(0.5) translate(60,-10)"></use>
      <use xlink:href="#Bush" transform="scale(0.5) translate(0,30)"></use>
    </g>
    <g id="brushland">
      <use xlink:href="#Bush" transform="scale(0.45) translate(0,-70)"></use>
      <use xlink:href="#Bush" transform="scale(0.5) translate(-50,-50)"></use>
      <use xlink:href="#Bush" transform="scale(0.5) translate(50,-50)"></use>
      <use xlink:href="#Bush" transform="scale(0.5) translate(-20,-20)"></use>
      <use xlink:href="#Bush" transform="scale(0.5) translate(-90,-40)"></use>
      <use xlink:href="#Bush" transform="scale(0.55) translate(90,-20)"></use>
      <use xlink:href="#Bush" transform="scale(0.55) translate(20,0)"></use>
      <use xlink:href="#Bush" transform="scale(0.5) translate(-65,0)"></use>
      <use xlink:href="#Bush" transform="scale(0.5) translate(80,0)"></use>
      <use xlink:href="#Bush" transform="scale(0.45) translate(-120,35)"></use>
      <use xlink:href="#Bush" transform="scale(0.5) translate(-30,40)"></use>
      <use xlink:href="#Bush" transform="scale(0.5) translate(50,40)"></use>
      <use xlink:href="#Bush" transform="scale(0.45) translate(110,40)"></use>
      <use xlink:href="#Bush" transform="scale(0.45) translate(20,70)"></use>
    </g>
    <g id="Fir">
      <path fill="white" d="m -16,-27 c 0,0 -11,-4 -12,15 -1,19 -9,1 -10,13 -1,13 -1,26 29,30 30,4 37,-15 37,-15 0,0 9,-13 -1,-18 -10,-5 4,-13 -12,-15 -17,-3 11,-14 -9,-14 -20,0 4,-15 -9,-15 -13,0 -13,19 -13,19 z"></path>
      <path fill="#39b54a" d="M 30,-2 C 20,-7 34,-15 18,-17 1,-20 28,-31 9,-31 c -5,0 -7,-1 -8,-2 0,0 -25,50 0,64 C 13,38 31,16 31,16 c 0,0 9,-13 -1,-18 z"></path>
      <path fill="none" stroke="black" stroke-width="6" d="m -16,-27 c 0,0 -11,-4 -12,15 -1,19 -9,1 -10,13 -1,13 -1,26 29,30 30,4 37,-15 37,-15 0,0 9,-13 -1,-18 -10,-5 4,-13 -12,-15 -17,-3 11,-14 -9,-14 -20,0 4,-15 -9,-15 -13,0 -13,19 -13,19 z"></path>
      <path fill="none" stroke="black" stroke-width="6" d="m -7,36 42,0"></path>
    </g>
    <g id="fir">
      <use xlink:href="#Fir" transform="scale(0.6)"></use>
    </g>
    <g id="firs">
      <use xlink:href="#Fir" transform="scale(0.6) translate(-40,-10)"></use>
      <use xlink:href="#Fir" transform="scale(0.7) translate(30,-15)"></use>
      <use xlink:href="#Fir" transform="scale(0.55) translate(0,10)"></use>
    </g>
    <g id="fir-forest">
      <use xlink:href="#Fir" transform="scale(0.5) translate(-20,-40)"></use>
      <use xlink:href="#Fir" transform="scale(0.5) translate(-60,-20)"></use>
      <use xlink:href="#Fir" transform="scale(0.5) translate(40,-40)"></use>
      <use xlink:href="#Fir" transform="scale(0.5) translate(80,-30)"></use>
      <use xlink:href="#Fir" transform="scale(0.5) translate(-40,10)"></use>
      <use xlink:href="#Fir" transform="scale(0.5) translate(-100,0)"></use>
      <use xlink:href="#Fir" transform="scale(0.5) translate(5,-15)"></use>
      <use xlink:href="#Fir" transform="scale(0.5) translate(50,-10)"></use>
      <use xlink:href="#Fir" transform="scale(0.5) translate(-60,30)"></use>
      <use xlink:href="#Fir" transform="scale(0.5) translate(30,20)"></use>
      <use xlink:href="#Fir" transform="scale(0.5) translate(-20,35)"></use>
      <use xlink:href="#Fir" transform="scale(0.5) translate(95,25)"></use>
    </g>
    <g id="Hill">
      <path fill="white" d="M 49,17 C -3,-103 -46,16 -46,16"></path>
      <path fill="#fecb86" d="m -8,17 c 0,0 50,11 55,-2 C 52,6 8,-46 8,-33 8,10 -8,17 -8,17 z"></path>
      <path fill="none" stroke="black" stroke-width="4" d="M 49,17 C -3,-103 -46,16 -46,16"></path>
    </g>
    <g id="hill">
      <use xlink:href="#Hill"></use>
    </g>
    <g id="Mountain">
      <path fill="white" d="m -48,16 c 0,0 32,-18 44,-42 C 7,-51 49,15 49,15"></path>
      <path d="m -1,-32 c 0,0 14,43 -4,47 -18,5 54,0 54,0 0,0 -35,-56 -49,-47 z" style="fill: #fecb86"></path>
      <path fill="none" stroke="black" stroke-width="3" d="m -48,16 c 0,0 32,-18 44,-42 C 7,-51 49,15 49,15"></path>
    </g>
    <g id="forest-hill">
      <use xlink:href="#Hill"></use>
      <use xlink:href="#Tree" transform="scale(0.4) translate(65,-60)"></use>
    </g>
    <g id="fir-hill">
      <use xlink:href="#Hill"></use>
      <use xlink:href="#Fir" transform="scale(0.4) translate(65,-60)"></use>
    </g>
    <g id="mountain">
      <use xlink:href="#Mountain"></use>
    </g>
    <g id="forest-mountain">
      <use xlink:href="#Mountain"></use>
      <use xlink:href="#Tree" transform="scale(0.4) translate(60,-60)"></use>
    </g>
    <g id="fir-mountain">
      <use xlink:href="#Mountain"></use>
      <use xlink:href="#Fir" transform="scale(0.4) translate(60,-60)"></use>
    </g>
    <g id="Peak">
      <path fill="white" d="m 37,30 c 0,0 -37,-130 -47,-82 -10,48 -39,83 -39,83"></path>
      <path fill="#fecb86" d="m -8,-62 c 0,0 12,83 -4,93 -16,10 48,0 48,0 0,0 -31,-110 -44,-93 z"></path>
      <path fill="none" stroke="black" stroke-width="4" d="m 37,30 c 0,0 -37,-130 -47,-82 -10,48 -39,83 -39,83"></path>
    </g>
    <g id="mountains">
      <use xlink:href="#Mountain" transform="scale(0.7) translate(-45,0)"></use>
      <use xlink:href="#Peak" transform="scale(0.7)"></use>
      <use xlink:href="#Mountain" transform="scale(0.7) translate(40,25)"></use>
    </g>
    <g id="forest-mountains">
      <use xlink:href="#Mountain" transform="scale(0.7) translate(-45,0)"></use>
      <use xlink:href="#Peak" transform="scale(0.7)"></use>
      <use xlink:href="#Mountain" transform="scale(0.7) translate(40,25)"></use>
      <use xlink:href="#Tree" transform="scale(0.3) translate(-120,-40)"></use>
      <use xlink:href="#Tree" transform="scale(0.3) translate(10,-20)"></use>
      <use xlink:href="#Tree" transform="scale(0.3) translate(150,10)"></use>
    </g>
    <g id="fir-mountains">
      <use xlink:href="#Mountain" transform="scale(0.7) translate(-45,0)"></use>
      <use xlink:href="#Peak" transform="scale(0.7)"></use>
      <use xlink:href="#Mountain" transform="scale(0.7) translate(40,25)"></use>
      <use xlink:href="#Fir" transform="scale(0.3) translate(-120,-40)"></use>
      <use xlink:href="#Fir" transform="scale(0.3) translate(10,-20)"></use>
      <use xlink:href="#Fir" transform="scale(0.3) translate(150,10)"></use>
    </g>
    <path id="desert" stroke="black" stroke-width="3" d="M-60,10 v3 M-50,-30 v3 M-40,-0 v3 M-30,40 v3 M-20,-20 v3 M-10,10 v3 M5,-30 v3 M10,20 v3 M20,0 v3 M30,30 v3 M30,-40 v3 M40,10 v3 M60,-10 v3 "></path>
    <g id="grass">
      <path stroke="black" stroke-width="6" d="m -21,-24 c -2,7 1,11 4,17"></path>
      <path stroke="black" stroke-width="6" d="m -10,-32 c 0,0 -1,15 3,23"></path>
      <path stroke="black" stroke-width="6" d="m 3,-20 c 0,0 0,11 -3,13"></path>
      <path stroke="black" stroke-width="6" d="m 25,1 c 0,10 7,11 7,21"></path>
      <path stroke="black" stroke-width="6" d="m 36,4 c 0,0 6,4 4,15"></path>
      <path stroke="black" stroke-width="6" d="m 49,7 c 0,0 -1,11 -1,12"></path>
      <path stroke="black" stroke-width="6" d="m -44,10 c 0,7 4,10 6,17"></path>
      <path stroke="black" stroke-width="6" d="m -33,5 c -1,7 1,13 3,19"></path>
      <path stroke="black" stroke-width="6" d="m -24,14 c 0,0 3,7 3,11"></path>
    </g>
    <g id="marsh">
      <path stroke="black" stroke-width="6" d="m -44,6 c 0,0 8,4 9,9"></path>
      <path stroke="black" stroke-width="6" d="m -32,1 c 0,0 6,9 6,12"></path>
      <path stroke="black" stroke-width="6" d="m -15,-1 c 0,0 -4,10 -3,13"></path>
      <path stroke="black" stroke-width="6" d="m -4,5 c 0,0 -7,7 -7,9"></path>
      <line stroke="black" stroke-width="6" y2="22" x2="-9" y1="22" x1="-36"></line>
      <path stroke="black" stroke-width="6" d="m 2,-16 c 0,0 7,5 7,9"></path>
      <path stroke="black" stroke-width="6" d="m 10,-26 c 0,0 7,12 7,16"></path>
      <line stroke="black" stroke-width="6" y2="-10" x2="25" y1="-32" x1="25"></line>
      <path stroke="black" stroke-width="6" d="m 40,-24 c 0,0 -6,11 -5,16"></path>
      <line stroke="black" stroke-width="6" y2="-2" x2="34" y1="-2" x1="11"></line>
    </g>
    <g id="swamp">
      <path d="m -24,12 c 0,0 7,3 7,7" stroke="black" stroke-width="5"></path>
      <path d="m -14,8 c 0,0 4,7 4,9" stroke="black" stroke-width="5"></path>
      <path d="m 0,7 c 0,0 -4,5 -3,9" stroke="black" stroke-width="5"></path>
      <path d="m 9,11 c 0,0 -6,6 -6,8" stroke="black" stroke-width="5"></path>
      <path stroke="black" stroke-width="5" d="m 12,38 c 0,0 -7,-3 -7,-7"></path>
      <path stroke="black" stroke-width="5" d="m 3,43 c 0,0 -4,-7 -4,-9"></path>
      <path stroke="black" stroke-width="5" d="m -11,44 c 0,0 4,-6 3,-10"></path>
      <path stroke="black" stroke-width="5" d="m -20,40 c 0,0 6,-6 6,-8"></path>
      <line x1="-17" y1="25" x2="4" y2="25" stroke="black" stroke-width="5"></line>
      <path d="m -4,-34 c 0,0 7,3 7,7" stroke="black" stroke-width="5"></path>
      <path d="m 6,-39 c 0,0 4,7 4,9" stroke="black" stroke-width="5"></path>
      <path d="m 19,-40 c 0,0 -3,5 -2,9" stroke="black" stroke-width="5"></path>
      <path d="m 28,-36 c 0,0 -6,6 -6,8" stroke="black" stroke-width="5"></path>
      <path stroke="black" stroke-width="5" d="m 32,-9 c 0,0 -7,-3 -7,-7"></path>
      <path stroke="black" stroke-width="5" d="m 22,-4 c 0,0 -4,-7 -4,-9"></path>
      <path stroke="black" stroke-width="5" d="m 8,-3 c 0,0 5,-5 3,-10"></path>
      <path stroke="black" stroke-width="5" d="m -1,-7 c 0,0 6,-6 6,-8"></path>
      <line x1="2" y1="-22" x2="24" y2="-22" stroke="black" stroke-width="5"></line>
    </g>
    <path id="cliff0" transform="rotate(  0)" d="M-90,-17.3 l-8.7,-5 M-80,-34.6 l-8.7,-5 M-70,-52 l-8.7,-5 M-60,-69.3 l-8.7,-5" stroke="black" stroke-width="5px" fill="none"></path>
    <path id="cliff1" transform="rotate( 60)" d="M-90,-17.3 l-8.7,-5 M-80,-34.6 l-8.7,-5 M-70,-52 l-8.7,-5 M-60,-69.3 l-8.7,-5" stroke="black" stroke-width="5px" fill="none"></path>
    <path id="cliff2" transform="rotate(120)" d="M-90,-17.3 l-8.7,-5 M-80,-34.6 l-8.7,-5 M-70,-52 l-8.7,-5 M-60,-69.3 l-8.7,-5" stroke="black" stroke-width="5px" fill="none"></path>
    <path id="cliff3" transform="rotate(180)" d="M-90,-17.3 l-8.7,-5 M-80,-34.6 l-8.7,-5 M-70,-52 l-8.7,-5 M-60,-69.3 l-8.7,-5" stroke="black" stroke-width="5px" fill="none"></path>
    <path id="cliff4" transform="rotate(240)" d="M-90,-17.3 l-8.7,-5 M-80,-34.6 l-8.7,-5 M-70,-52 l-8.7,-5 M-60,-69.3 l-8.7,-5" stroke="black" stroke-width="5px" fill="none"></path>
    <path id="cliff5" transform="rotate(300)" d="M-90,-17.3 l-8.7,-5 M-80,-34.6 l-8.7,-5 M-70,-52 l-8.7,-5 M-60,-69.3 l-8.7,-5" stroke="black" stroke-width="5px" fill="none"></path>
    <g id="CaveOld">
      <path id="path76" fill="#000000" d="M126.4,58.3l-49-58.4L58.9-60.4l-59-16.2L-27-43.2l-51.6-5.7 L-127.1,35c-2,3.7-0.9,8.2,2.8,10.2s8.2,0.9,10.2-2.8l43.7-75.1l50.2,5.4l25.8-32L47.3-48L64,7.3L114.7,68c1.4,1.7,3.7,2.8,5.7,2.8 c1.7,0,3.4-0.6,4.8-1.7C128.6,66.3,128.9,61.7,126.4,58.3z"></path>
      <path id="path78" fill="#000000" d="M2.8-0.6c-22.7,0-41.4,18.4-41.4,41.4v28.1 c0,4.3,3.4,7.7,7.7,7.7s7.7-3.4,7.7-7.7V40.8c0-14.5,11.6-26.1,26.1-26.1s26,11.6,26,26.1v28.1c0,4.3,3.4,7.7,7.7,7.7 s7.7-3.4,7.7-7.7V40.8C43.9,18.1,25.5-0.6,2.8-0.6z"></path>
    </g>
    <g id="Cave">
      <polygon fill="#A5A5A5" stroke="#000000" stroke-width="10px" points="-143.8,76.6 -74.4,-39.4 -23.1,-35.8 2.9,-67.6 53.1,-54.9 70.4,0 128.1,76.6"></polygon>
      <path fill="#000000" d="M2.8-0.6c-22.7,0-41.4,18.4-41.4,41.4v28.1c0,4.3,3.4,7.7,7.7,7.7 s63.2,0,67.5,0s7.7-3.4,7.7-7.7V40.8C43.9,18.1,25.5-0.6,2.8-0.6z"></path>
    </g>
    <g id="cave">
      <use xlink:href="#Cave" transform="scale(0.25)"></use>
    </g>
    <g id="Battle">
      <g id="g83">
        <path id="path81" fill="#000000" d="M79-53c-2.2-2.7-6.3-3.1-9.2-1.2c-11.6,8.2-15.2,7.5-18.6,5.5 c0.7-2.9-0.2-6-3.1-7.7l-3.4-1.9l4.8-8.4c1.9-3.4,0.7-7.5-2.7-9.4c-3.4-1.9-7.5-0.7-9.4,2.7L32.7-65l-2.9-1.7 c-1.7-1-3.4-1.2-5.1-0.7c-1.7,0.5-3.1,1.7-4.1,3.1l-14,25.1c-1.9,3.4-0.7,7.5,2.4,9.4l2.4,1.4L-0.1-9.5l-11.6-18.8l2.4-1.4 c3.4-1.9,4.3-6,2.4-9.4l-14-24.8c-1-1.7-2.4-2.7-4.1-3.1c-1.7-0.5-3.6-0.2-5.3,0.7l-2.9,1.7l-4.8-8.4c-1.9-3.4-6-4.3-9.4-2.7 c-3.4,1.7-4.3,6-2.7,9.4l4.8,8.4l-3.1,1.9c-2.7,1.7-3.9,4.8-3.1,7.7c-3.4,1.9-7,2.4-18.6-5.5c-2.9-1.9-6.8-1.4-9.2,1.2 c-1.9,2.4-7.5,11.8,5.5,34.2C-62.5,1.1-52.9,3.7-48.3,3.7c0.7,0,1.2,0,1.7-0.2c3.4-0.7,5.8-3.9,5.5-7.2c-1-11.8,1-14,5.8-16.6 c1,1,1.9,1.7,3.1,1.9c0.5,0.2,1.2,0.2,1.7,0.2c1.2,0,2.4-0.2,3.4-1l3.9-2.2L-7.8,3.7l-38.8,62.9c-1.9,3.1-1,7.5,2.2,9.4 c1.2,0.7,2.4,1,3.6,1c2.4,0,4.6-1.2,5.8-3.4L0.2,16.5l35.2,57.2c1.2,2.2,3.6,3.4,5.8,3.4c1.2,0,2.4-0.2,3.6-1 c3.1-1.9,4.3-6.3,2.2-9.4L8.1,3.5l15.4-25.1l3.9,2.2c1,0.7,2.2,1,3.4,1c0.5,0,1.2,0,1.7-0.2c1.2-0.2,2.2-1,3.1-1.9 c4.8,2.9,6.8,4.8,5.8,16.6c-0.2,3.6,2.2,6.8,5.5,7.2c0.5,0,1,0.2,1.7,0.2c4.3,0,14-2.7,25.3-22.2C86.5-41.1,81.2-50.5,79-53"></path>
      </g>
    </g>
    <g id="battle">
      <use xlink:href="#Battle" transform="scale(0.25)"></use>
    </g>
    <g id="RopeBridge">
      <path d="M28.17,1A2.17,2.17,0,0,0,26.28-.41c-.17,0-.22,0-.33.12L23.78-7c1.11-.42,2.28-1,3.44-1.5a.75.75,0,0,0,.39-1,.69.69,0,0,0-.94-.36c-27.18,13.14-53,.12-53.3,0a.63.63,0,0,0-.89.36.73.73,0,0,0,.33,1,41.76,41.76,0,0,0,3.83,1.68L-25.52-.17a3.18,3.18,0,0,0-.67-.12A1.88,1.88,0,0,0-28.13.91a2.32,2.32,0,0,0,.94,3,68,68,0,0,0,27.9,6,60.25,60.25,0,0,0,26.4-6,2.3,2.3,0,0,0,1.11-1.32,2.39,2.39,0,0,0,0-1.62ZM24.62.13a62.89,62.89,0,0,1-10.21,3.6L12.8-3.77a56.25,56.25,0,0,0,9.71-2.76ZM17.79,5.89l-.38-1.38c1.33-.42,2.6-.84,3.93-1.38l.5,1.44c-1.33.42-2.66,1-4.05,1.32ZM12.53,7.21l-.28-1.44c1.27-.24,2.61-.54,3.83-.9l.44,1.44q-2,.54-4,.9ZM-16.7,6.07l.38-1.44c1.22.3,2.44.6,3.83.9L-12.77,7c-1.38-.3-2.71-.6-3.93-.9Zm-5.44-1.74.5-1.44c1.11.42,2.49.84,3.94,1.32L-18,5.71c-1.49-.48-2.88-.9-4.1-1.38ZM-.68,5.41A59.75,59.75,0,0,1-12.32,4l1.22-7.62a75.55,75.55,0,0,0,10.42,1Zm-10.42.36c1.33.24,2.66.42,4.05.6l-.17,1.5c-1.44-.18-2.83-.36-4.22-.66Zm5.43.84c1.56.12,3.22.3,5,.3v1.5c-1.83-.12-3.55-.18-5.15-.3Zm6.38.3c1.5,0,3.11-.12,4.77-.24l.11,1.5c-1.66.12-3.33.24-4.88.24Zm6.1-.3c1.28-.18,2.66-.3,4.05-.54l.28,1.44c-1.44.18-2.83.42-4.22.6ZM11.42-3.47,13,4.09A59.59,59.59,0,0,1,.71,5.41v-8h0a67.68,67.68,0,0,0,10.71-.9Zm-23.91-.36-1.22,7.56A61.9,61.9,0,0,1-24.25.37l2.11-6.84a69,69,0,0,0,9.65,2.64ZM-26.91,1.51c.17-.3.33-.48.61-.48a.4.4,0,0,1,.28.06c.11,0,1.11.6,3.05,1.32l-.45,1.5a29,29,0,0,1-3.16-1.38.93.93,0,0,1-.33-1Zm53.47,1c-1.11.54-2.22,1.08-3.33,1.5l-.5-1.44c1.11-.42,2.16-.9,3.27-1.38.06-.12.23-.12.28-.12a.65.65,0,0,1,.61.48.73.73,0,0,1-.33,1Z"></path>
    </g>
    <g id="ropebridge">
      <use xlink:href="#RopeBridge" transform="scale(1.4)"></use>
    </g>
    <linearGradient id="ruins_gradient_1" x1="-43.48" y1="-26.67" x2="33.91" y2="50.73" gradientUnits="userSpaceOnUse">
      <stop offset="0" stop-color="#fcca87"></stop>
      <stop offset="1" stop-color="#fff"></stop>
    </linearGradient>
    <g id="Ruins">
      <path d="m 39.109446,31.220077 h -6.999984 a 0.56999878,0.57000001 0 0 1 -0.599999,-0.6 V 5.4800768 a 0.57999876,0.58000001 0 0 0 -0.609999,-0.61 h -6.489986 a 0.56999878,0.57000001 0 0 1 -0.599998,-0.61 v -7.5300001 a 0.62999865,0.63000001 0 0 0 -0.25,-0.48 L 14.0895,-10.309923 a 0.53999884,0.54000001 0 0 0 -0.849999,0.4799996 V 30.620077 a 0.56999878,0.57000001 0 0 1 -0.609998,0.6 H 9.1095077 a 0.56999878,0.57000001 0 0 1 -0.609997,-0.6 v -53.2 a 0.56999878,0.57000001 0 0 0 -0.599999,-0.61 H -9.1004515 a 0.56999878,0.57000001 0 0 0 -0.599998,0.61 v 53.32 a 0.56999878,0.57000001 0 0 1 -0.6099985,0.6 h -2.549995 a 0.56999878,0.57000001 0 0 1 -0.609999,-0.6 v -53.32 a 0.57999876,0.58000001 0 0 0 -0.609997,-0.61 h -10.689977 c -0.13,0 -0.13,-0.24 0,-0.24 l 34.999921,-4.49 c 0.37,0 0.61,-0.37 0.49,-0.61 L 8.8695097,-41.989925 c 0,-0.24 -0.369999,-0.49 -0.609999,-0.49 l -13.5999722,1.7 c -0.119999,0 -0.239999,0.12 -0.369999,0.25 a 24.349947,24.35 0 0 1 -4.7299875,4.610001 7.9299829,7.9300001 0 0 1 -2.429995,1.34 c -2.429994,0.85 -5.099988,-0.12 -7.649983,-0.73 -5.099989,-1.1 -10.449977,-0.25 -15.549967,1.33 a 0.82999821,0.83000001 0 0 0 -0.479999,0.61 l 1.449997,10.450001 c 0,0.36 0.369999,0.48 0.609999,0.48 l 2.309996,-0.24 a 0.56999878,0.57000001 0 0 1 0.599998,0.61 v 52.81 a 0.56999878,0.57000001 0 0 1 -0.599998,0.6 h -6.929986 a 0.66999856,0.67000001 0 0 0 -0.599999,0.37 l -2.799994,10.08 a 0.61999867,0.62000001 0 0 0 0.609999,0.73 h 83.79982 a 0.67999854,0.68000001 0 0 0 0.609999,-0.73 l -2.919994,-10.08 a 0.52999886,0.53000001 0 0 0 -0.479999,-0.49 z" style="fill: url(#ruins_gradient_1); stroke: #1d1d1b; stroke-width: 0.99999893; stroke-miterlimit: 10"></path>
    </g>
    <g id="ruins">
      <use xlink:href="#Ruins" transform="scale(0.8)"></use>
    </g>
    <g id="Pixie">
      <g transform="translate(-39.695457,-48.541242)">
        <path d="m -34.85,-18.43 a 3.05,3.05 0 0 1 3.3,-0.2 7.73,7.73 0 0 1 2.9,2.7 c 0.3,0.4 0.6,0.9 0.9,1.3 a 2.79,2.79 0 0 1 1.6,-0.1 3,3 0 0 1 1,4.3 l -0.7,0.9 a 5.36,5.36 0 0 0 1,2 c 1.3,1.4 3.1,0.2 3.1,0.2 0,0 -2.6,-0.2 0,-3 a 7.68,7.68 0 0 0 1.8,-3.3 9.69,9.69 0 0 0 -1.5,-6.8 3.92,3.92 0 0 0 2.1,-2.1 4,4 0 0 0 -2.1,-5.2 4,4 0 0 0 -5.2,2.1 3.93,3.93 0 0 0 -0.3,1.4 10.39,10.39 0 0 0 -8,1.8 c 0,0 -3.7,0.3 -4.2,2.7 -0.3,1.5 1.3,2.5 3.8,2.8 -0.1,0.1 -0.65,-0.7 0.5,-1.5 z" transform="translate(39.68,48.6)" style="fill: #fcca87; stroke: #1d1d1b; stroke-miterlimit: 10"></path>
        <path d="m 5.75,27.37 c 0,0 -2.75,-10.1 -6.7,-12.5 A 44.92,44.92 0 0 0 12,12.37 c 0,0 -7,-3.6 -10.4,-3.9 0,0 6,-0.3 9.4,-3.8 0,0 -10.1,-1.7 -16.1,1.7 a 5.9,5.9 0 0 1 -3.7,1 c -1,0.5 -4.2,1.4 -11.6,-2.8 -0.9,-0.5 -3.8,0.1 -5.4,1.4 a 7.1,7.1 0 0 0 4,4.5 15.86,15.86 0 0 1 3.7,1.8 c 2,1.4 4.7,3.4 4.8,4.3 0,0 0.5,13 1,17.7 0,0 7.2,-8.1 6.8,-12.1 a 19.12,19.12 0 0 0 11.25,5.2 z" transform="translate(39.68,48.6)" style="fill: #fcca87; stroke: #1d1d1b; stroke-miterlimit: 10"></path>
        <path d="m -20.15,4 c 1.6,0.7 7.2,3.8 10.2,3.1 -2,-1.1 -2.7,-3.9 -3.3,-4.9 A 13,13 0 0 1 -13.85,1 L -1,2.17 c 2.4,0.6 10.5,1.3 10.5,1.3 0,0 4.5,1.1 6.15,1.53 1.65,0.43 1.3,-0.9 0.9,-1.5 -0.4,-0.6 1.7,-1.7 3,-2.8 1.3,-1.1 -1.9,-1.3 -4.1,-0.2 a 6.3,6.3 0 0 1 -4.1,0.6 c 0,0 -9.35,-3.23 -11.6,-3.03 -2.25,0.2 -14,-2.6 -16.1,-3.2 a 13.36,13.36 0 0 0 -4.7,-0.3 5.37,5.37 0 0 1 -5.2,-2.57 c -0.2,-0.6 -0.4,-1.2 -0.6,-1.9 2.2,-1.3 1.1,-4 -0.1,-4.1 a 1,1 0 0 0 -1.2,0.8 c -1.1,-2.5 -2.6,-4.7 -4.7,-5 0,0 -1.2,-0.1 -1.5,0.2 -0.3,0.3 -0.6,0.1 -0.4,1.6 v 0.4 a 10.65,10.65 0 0 1 -2.4,-0.3 5,5 0 0 0 -0.1,2.7 c 0.4,1.2 1.6,1.8 1.3,3.2 -0.3,1.4 -1.3,1.3 -1,2 a 2,2 0 0 0 1.3,0.9 c 0,0 -0.2,0.8 0,1.1 l 0.6,0.4 c 0,0 -0.1,0.7 0.4,0.9 0.5,0.2 0.6,1.7 1.6,1.7 a 7.37,7.37 0 0 0 3.4,-1 c 0,0 0.3,0.2 0.8,0.6 a 8,8 0 0 1 1.4,3.3 56.22,56.22 0 0 1 1.5,5.6 c 1.2,-0.83 3.8,-2.03 5.8,-1.1 z" transform="translate(39.68,48.6)" style="fill: #fcca87; stroke: #1d1d1b; stroke-miterlimit: 10"></path>
        <path d="m 34.85,42.77 c -2.4,-1.7 -1.5,-5.4 -2.8,-6 -1.3,-0.6 -1.9,1.3 -5.4,-0.6 -3.5,-1.9 -10.6,-7.7 -14.4,-9.1 a 38.22,38.22 0 0 1 -6.9,-3.9 c 0,0 1.9,3.6 1.8,5.5 a 63.39,63.39 0 0 1 -6.3,-1.4 l 4.7,2.8 a 10.83,10.83 0 0 0 2.5,1.4 c 1.5,0.6 19.8,9.9 19.8,9.9 0,0 4.3,4.3 6.4,4.5 2.1,0.2 2.6,3 3,1.9 0.4,-1.1 0,-3.3 -2.4,-5 z" transform="translate(39.68,48.6)" style="fill: #fcca87; stroke: #1d1d1b; stroke-miterlimit: 10"></path>
        <path d="m 39,9.47 c -0.8,-0.6 -3.2,1.3 -4.7,1.3 -1.5,0 -3.6,-1.2 -4.7,-0.2 -2,1.7 1.3,2.4 -4.7,4.5 -6,2.1 -10.7,6.4 -12.2,6.4 -1.5,0 -9.2,-4.7 -9.2,-4.7 l -1.7,-1 c 1.4,1.4 3.2,5.6 3.2,5.6 a 37.77,37.77 0 0 0 7,4.2 42.15,42.15 0 0 1 3.9,2 c 0,0 6,-5.4 9.7,-8.8 3.7,-3.4 6,-2.7 8.4,-4.6 1.65,-1.4 6.25,-3.7 5,-4.7 z" transform="translate(39.68,48.6)" style="fill: #fcca87; stroke: #1d1d1b; stroke-miterlimit: 10"></path>
        <path d="m -16.85,-6 3.2,0.7 c 4.3,-8.8 19.8,-15 19.8,-15 3.4,-15.53 -11.7,-27.7 -11.7,-27.7 0,0 -5.5,2.3 -9.4,14.2 -3.9,11.9 -1.9,27.8 -1.9,27.8 z" transform="translate(39.68,48.6)" style="fill: #fcca87; stroke: #1d1d1b; stroke-miterlimit: 10"></path>
        <path d="m -12.45,-5.13 c 1.3,0.7 11.4,2.3 11.4,2.3 4,-0.3 9.6,2.2 9.6,2.2 5.2,-2.2 5.2,-9.1 5.2,-9.1 -0.1,-8.7 -7.7,-9.7 -7.7,-9.7 -16.2,7.43 -18.5,14.3 -18.5,14.3 z" transform="translate(39.68,48.6)" style="fill: #fcca87; stroke: #1d1d1b; stroke-miterlimit: 10"></path>
        <path d="m -12.55,1.77 a 9.38,9.38 0 0 1 0.9,1.8 3.53,3.53 0 0 0 0.8,1.3 c 0,0 8.1,-0.1 11.2,-1.4 0,0 -1.9,-0.4 -2.1,-0.4 -0.2,0 -10.1,-0.7 -10.8,-1.3 z" transform="translate(39.68,48.6)" style="fill: #fcca87; stroke: #1d1d1b; stroke-miterlimit: 10"></path>
        <path d="m -19.45,-27.53 a 5,5 0 0 1 -0.7,7.4 10.81,10.81 0 0 1 0.8,8.2 4,4 0 0 1 -1,1.5 25,25 0 0 1 0.6,3.9 l 0.1,0.4 h 2.2 a 57.59,57.59 0 0 1 -0.5,-14.9 77.42,77.42 0 0 1 2.4,-13.5 l -0.1,-0.4 c -0.4,-2.4 -4.9,-7.6 -4.9,-7.6 a 21.58,21.58 0 0 0 -2.6,13.8 4.19,4.19 0 0 1 3.7,1.2 z" transform="translate(39.68,48.6)" style="fill: #fcca87; stroke: #1d1d1b; stroke-miterlimit: 10"></path>
      </g>
    </g>
    <g id="pixie">
      <use xlink:href="#Pixie" transform="scale(0.8)"></use>
    </g>
    <g id="Beartrap">
      <path d="M -5.0085123e-4,-27.51902 A 42.56,42.56 0 0 0 -42.520501,15.00098 42.56,42.56 0 0 0 -5.0085123e-4,57.52098 42.56,42.56 0 0 0 42.519499,15.00098 42.56,42.56 0 0 0 -5.0085123e-4,-27.51902 Z m 0,2.13 A 40.43,40.43 0 0 1 40.369499,13.94098 h -7 l -4.4,-3.52 3.3,-4.9999997 a 1.05,1.05 0 0 0 0.13,-0.91 1.07,1.07 0 0 0 -0.64,-0.67 l -5.66,-2.14 1.58,-5.79 a 1.06,1.06 0 0 0 -0.16,-0.91 1,1 0 0 0 -0.81,-0.43 l -6,-0.28 -0.28,-6.0000003 a 1,1 0 0 0 -0.44,-0.81 1,1 0 0 0 -0.9,-0.16 l -5.8,1.58 -2.11,-5.62 a 1.06,1.06 0 0 0 -0.67,-0.64 1.08,1.08 0 0 0 -0.9099999,0.12 l -5,3.31 -3.76999995,-4.69 a 1.11,1.11 0 0 0 -1.66,0 l -3.76000005,4.69 -5,-3.31 a 1.1,1.1 0 0 0 -0.9200001,-0.12 1,1 0 0 0 -0.66,0.64 l -2.13,5.62 -5.79,-1.59 a 1.09,1.09 0 0 0 -0.91,0.17 1.09,1.09 0 0 0 -0.44,0.81 l -0.27,6.0000003 -6,0.28 a 1,1 0 0 0 -0.81,0.43 1.05,1.05 0 0 0 -0.16,0.91 l 1.58,5.79 -5.62,2.12 a 1.07,1.07 0 0 0 -0.64,0.67 1.08,1.08 0 0 0 0.12,0.91 l 3.31,4.9999997 -4.4,3.52 h -7 a 40.43,40.43 0 0 1 40.33000014877,-39.31 z m 23.79999985123,53.31 1.48,5.45 -5.64,0.26 a 1.06,1.06 0 0 0 -1,1 l -0.26,5.64 -5.46,-1.47 a 1,1 0 0 0 -1.27,0.65 l -1.9999999,5.28 -4.65,-3.11 a 1.08,1.08 0 0 0 -1.42,0.22 l -3.57999995123,4.41 -3.53000004877,-4.41 a 1.06,1.06 0 0 0 -0.83,-0.39 1.06,1.06 0 0 0 -0.59,0.17 l -4.71,3.11 -2.0000001,-5.29 a 1.07,1.07 0 0 0 -1.27,-0.65 l -5.45,1.49 -0.26,-5.64 a 1.06,1.06 0 0 0 -1,-1 l -5.65,-0.26 1.49,-5.45 a 1,1 0 0 0 -0.65,-1.27 l -5.28,-2 2.86,-4.35 h 16.9200001 a 11.3,11.3 0 0 0 10.00000005,6 11.3,11.3 0 0 0 9.99999985,-6 h 16.81 l 2.87,4.35 -5.29,2 a 1,1 0 0 0 -0.64,1.26 z m -47.6,-25.8399997 -1.48,-5.45 5.64,-0.26 a 1.07,1.07 0 0 0 1,-1 l 0.26,-5.6500003 5.45,1.4900003 a 1,1 0 0 0 1.27,-0.65 l 2.0000001,-5.2800003 4.71,3.11 a 1.08,1.08 0 0 0 1.42,-0.22 l 3.53000004877,-4.42 3.52999995123,4.41 a 1.08,1.08 0 0 0 1.47,0.22 l 4.71,-3.11 1.9999999,5.2800003 a 1,1 0 0 0 1.27,0.65 l 5.45,-1.4800003 0.26,5.6400003 a 1.07,1.07 0 0 0 1,1 l 5.65,0.26 -1.54,5.46 a 1,1 0 0 0 0.65,1.27 l 5.28,2 -2.68,4.05 H 9.8494991 a 11.32,11.32 0 0 0 -9.84999995123,-5.72 11.32,11.32 0 0 0 -9.79000004877,5.72 H -27.000501 l -2.68,-4.06 5.28,-2 a 1,1 0 0 0 0.6,-1.26 z M -9.1605009,15.00098 A 9.2,9.2 0 0 1 -5.0085123e-4,5.8109803 9.2,9.2 0 0 1 9.2194991,15.00098 a 9.2,9.2 0 0 1 -9.21999995123,9.19 9.2,9.2 0 0 1 -9.16000004877,-9.19 z m -17.7600001,-3.47 h 16.18 a 11.36,11.36 0 0 0 -0.55,3.47 11.19,11.19 0 0 0 0.47,3.19 h -16.45 l -4,-3.19 z m 54.19,6.66 h -16.39 a 11.19,11.19 0 0 0 0.47,-3.19 11.06,11.06 0 0 0 -0.56,-3.47 h 16.13 l 4.33,3.47 z m -27.26999985123,37.2 A 40.43,40.43 0 0 1 -40.370501,16.06098 h 7 l 4.39,3.52 -3.31,5 a 1.08,1.08 0 0 0 -0.12,0.91 1.07,1.07 0 0 0 0.64,0.67 l 5.62,2.12 -1.58,5.79 a 1.06,1.06 0 0 0 0.16,0.91 1,1 0 0 0 0.81,0.43 l 6,0.28 0.28,6 a 1,1 0 0 0 0.43,0.81 1.06,1.06 0 0 0 0.91,0.16 l 5.79,-1.58 2.12,5.62 a 1.09,1.09 0 0 0 0.67,0.64 1.08,1.08 0 0 0 0.9100001,-0.12 l 5,-3.31 3.75000005,4.69 a 1.07,1.07 0 0 0 0.89999999877,0.4 1.07,1.07 0 0 0 0.83000000123,-0.4 l 3.74999995,-4.69 5,3.3 a 1,1 0 0 0 0.9099999,0.13 1.07,1.07 0 0 0 0.67,-0.64 l 2.14,-5.6 5.79,1.58 a 1.06,1.06 0 0 0 0.91,-0.16 1,1 0 0 0 0.43,-0.81 l 0.28,-6 6,-0.28 a 1,1 0 0 0 0.81,-0.44 1.07,1.07 0 0 0 0.17,-0.9 l -1.59,-5.8 5.62,-2.11 a 1.06,1.06 0 0 0 0.64,-0.67 1.08,1.08 0 0 0 -0.12,-0.91 l -3.31,-5 4.39,-3.52 h 7 a 40.43,40.43 0 0 1 -40.31999985123,39.31 z" style="fill: none; stroke: #000000; stroke-width: 2; stroke-miterlimit: 10"></path>
    </g>
    <g id="beartrap">
      <use xlink:href="#Beartrap" transform="scale(0.8)"></use>
    </g>
    <linearGradient id="camp_gradient_1" x1="29.03" y1="15.23" x2="55.9" y2="15.23" gradientUnits="userSpaceOnUse">
      <stop offset="0" stop-color="#fcca87"></stop>
      <stop offset="1" stop-color="#fff"></stop>
    </linearGradient>
    <linearGradient id="camp_gradient_2" x1="60.64" y1="43.34" x2="90.96" y2="43.34" xlink:href="#camp_gradient_1"></linearGradient>
    <linearGradient id="camp_gradient_3" x1="12.23" y1="53.12" x2="44.72" y2="53.12" xlink:href="#camp_gradient_1"></linearGradient>
    <g id="Camp">
      <g transform="translate(-51.644682,-35.725831)">
        <polygon points="28 6.15 19.21 22.74 22.79 24.18 27.47 17.21 31.87 27.82 37.69 30.16 28 6.15" style="fill: #fccb87; stroke: #000; stroke-miterlimit: 10; stroke-width: 0.5px"></polygon>
        <polygon points="29.03 5.52 46.05 0.3 55.9 22.24 39.27 30.16 29.03 5.52" style="stroke: #000; stroke-miterlimit: 10; stroke-width: 0.5px; fill: url(#camp_gradient_1)"></polygon>
        <polygon points="59.48 33.09 49.55 51.81 53.59 53.44 58.88 45.57 63.84 57.55 70.41 60.19 59.48 33.09" style="fill: #fccb87; stroke: #000; stroke-miterlimit: 10; stroke-width: 0.5px"></polygon>
        <polygon points="60.64 32.38 79.85 26.49 90.96 51.26 72.19 60.19 60.64 32.38" style="stroke: #000; stroke-miterlimit: 10; stroke-width: 0.5px; fill: url(#camp_gradient_2)"></polygon>
        <polygon points="10.98 42.14 0.35 62.2 4.68 63.94 10.35 55.51 15.66 68.35 22.7 71.17 10.98 42.14" style="fill: #fccb87; stroke: #000; stroke-miterlimit: 10; stroke-width: 0.5px"></polygon>
        <polygon points="12.22 41.38 32.81 35.07 44.72 61.6 24.61 71.17 12.22 41.38" style="stroke: #000; stroke-miterlimit: 10; stroke-width: 0.5px; fill: url(#camp_gradient_3)"></polygon>
      </g>
    </g>
    <g id="camp">
      <use xlink:href="#Camp" transform="scale()"></use>
    </g>
    <g id="Hydra">
      <g transform="translate(-54.8485,-48.50218)">
        <path d="m 92.221,63.961 c -0.228,-0.129 -0.52,-0.06 -0.664,0.162 -0.005,0.008 -0.511,0.775 -1.538,1.951 -1.532,1.738 -3.115,3.18 -4.84,4.406 -1.785,1.276 -4.641,2.94 -8.11,3.617 -1.576,0.313 -3.2,0.412 -4.846,0.287 -1.317,-0.091 -2.721,-0.365 -4.173,-0.817 -0.173,-0.052 -0.364,-0.009 -0.496,0.118 -0.132,0.128 -0.183,0.316 -0.134,0.493 0.324,1.175 0.391,2.435 0.196,3.744 -0.021,0.133 0.015,0.269 0.096,0.376 0.082,0.107 0.203,0.177 0.337,0.193 0.997,0.123 1.968,0.186 2.885,0.186 0.426,0 0.851,-0.014 1.27,-0.041 1.989,-0.115 3.938,-0.497 5.793,-1.134 3.105,-1.061 6.003,-2.84 8.61,-5.285 1.654,-1.551 3.118,-3.293 4.478,-5.33 0.915,-1.383 1.326,-2.24 1.343,-2.276 0.112,-0.237 0.021,-0.521 -0.207,-0.65 z m -28.656,6.337 c -0.173,0.053 -0.306,0.197 -0.345,0.374 -0.034,0.156 -0.618,2.365 -1.002,3.813 -0.035,0.133 -0.009,0.282 0.063,0.399 0.039,0.063 0.921,1.568 -1.618,4.308 -4.041,4.365 -11.089,6.971 -18.852,6.971 -10.764,0 -20.567,-4.434 -20.567,-9.303 0,-0.696 0.203,-1.426 0.604,-2.17 0.085,-0.158 0.079,-0.351 -0.017,-0.502 -0.895,-1.432 -1.354,-2.937 -1.363,-4.472 -0.001,-0.2 -0.122,-0.38 -0.306,-0.458 -0.184,-0.078 -0.396,-0.038 -0.541,0.101 -2.315,2.227 -3.539,4.82 -3.539,7.501 0,7.887 11.542,14.303 25.729,14.303 10.379,0 19.423,-3.556 23.041,-9.059 0.815,-1.24 1.334,-2.552 1.539,-3.896 0.073,-0.473 0.108,-0.914 0.108,-1.348 0,-2.768 -0.241,-4.306 -2.441,-6.443 -0.128,-0.128 -0.317,-0.168 -0.493,-0.119 z M 93.296,41.951 c -0.256,-0.1 -0.548,0.025 -0.648,0.283 -0.479,1.223 -1.406,2.185 -2.609,2.71 -0.306,0.133 -0.62,0.233 -0.939,0.302 l 0.311,-0.792 c 0.064,-0.164 0.021,-0.35 -0.11,-0.467 l -8.469,-7.62 c -0.103,-0.093 -0.244,-0.13 -0.379,-0.097 -0.135,0.032 -0.245,0.127 -0.296,0.256 l -1.34,3.414 c -3.879,-0.297 -7.361,0.516 -10.399,2.45 -1.287,0.819 -2.413,1.797 -3.404,2.867 -0.375,-4.138 -1.873,-8.444 -5.251,-12.292 l 2.773,-2.24 c 0.107,-0.087 0.166,-0.221 0.156,-0.359 -0.011,-0.138 -0.088,-0.262 -0.207,-0.333 L 52.67,24.25 c -0.152,-0.089 -0.344,-0.075 -0.479,0.035 l -0.657,0.531 c -0.147,-1.585 0.471,-3.214 1.799,-4.287 0.215,-0.173 0.248,-0.488 0.074,-0.703 -0.174,-0.214 -0.488,-0.249 -0.703,-0.074 -1.757,1.42 -2.485,3.646 -2.087,5.724 -0.53,-0.224 -1.083,-0.396 -1.671,-0.458 -1.574,-0.167 -3.114,0.288 -4.344,1.282 -0.214,0.173 -0.248,0.488 -0.074,0.703 0.173,0.215 0.488,0.249 0.703,0.074 1.328,-1.073 3.05,-1.336 4.569,-0.859 l -0.656,0.53 c -0.137,0.111 -0.19,0.294 -0.135,0.461 l 3.592,10.811 c 0.044,0.131 0.149,0.233 0.282,0.272 0.038,0.011 0.078,0.017 0.118,0.017 0.096,0 0.189,-0.033 0.265,-0.094 l 2.601,-2.102 c 4.266,4.738 4.688,10.17 4.021,14.445 C 55.234,46.488 44.601,35.835 43.22,22.493 l 2.6,0.869 c 0.044,0.015 0.089,0.022 0.134,0.022 0.007,-0.001 0.013,0 0.02,0 0.233,0 0.421,-0.189 0.421,-0.422 0,-0.05 -0.009,-0.099 -0.025,-0.143 L 45.963,11.563 C 45.957,11.387 45.842,11.234 45.675,11.178 L 44.874,10.91 C 46.131,9.932 47.837,9.577 49.455,10.118 49.718,10.205 50,10.064 50.088,9.803 50.175,9.541 50.034,9.258 49.773,9.17 47.639,8.455 45.382,9.031 43.846,10.47 43.484,8.397 42.026,6.58 39.894,5.867 c -0.26,-0.086 -0.545,0.054 -0.633,0.315 -0.088,0.262 0.054,0.545 0.315,0.633 1.62,0.542 2.769,1.851 3.185,3.388 L 41.96,9.935 C 41.793,9.879 41.609,9.932 41.499,10.069 l -7.175,8.848 c -0.087,0.107 -0.116,0.251 -0.077,0.383 0.039,0.133 0.14,0.238 0.271,0.282 l 3.961,1.324 c 0.458,11.933 7.379,21.837 13.13,28.063 -4.511,-1.694 -9.018,-1.943 -11.021,-1.96 v -3.971 c 0,-0.138 -0.068,-0.268 -0.182,-0.347 -0.114,-0.078 -0.259,-0.096 -0.388,-0.048 l -10.667,4 c -0.165,0.062 -0.274,0.219 -0.274,0.395 v 0.844 C 27.751,47 26.874,45.496 26.874,43.788 c 0,-0.276 -0.224,-0.5 -0.5,-0.5 -0.276,0 -0.5,0.224 -0.5,0.5 0,2.249 1.261,4.208 3.113,5.208 -1.852,1.001 -3.113,2.96 -3.113,5.208 0,0.276 0.224,0.5 0.5,0.5 0.276,0 0.5,-0.224 0.5,-0.5 0,-1.708 0.877,-3.212 2.203,-4.094 v 0.844 c 0,0.175 0.109,0.333 0.274,0.395 l 10.667,3.999 c 0.048,0.019 0.098,0.027 0.148,0.027 0.084,0 0.168,-0.025 0.24,-0.075 0.114,-0.079 0.182,-0.208 0.182,-0.347 v -2.974 c 0.169,-0.004 0.357,-0.006 0.566,-0.006 3.102,0 10.714,0.516 14.395,5.284 4.872,6.313 2.555,13.591 -0.646,16.741 -2.559,2.517 -7.598,4.08 -13.152,4.08 -7.316,0 -13.867,-2.992 -15.238,-6.959 -0.176,-0.511 -0.262,-0.987 -0.262,-1.458 0,-1.131 0.458,-2.254 1.363,-3.338 2.576,-3.085 8.125,-5.078 14.137,-5.078 6.607,0 12.903,2.386 14.971,5.673 0.107,0.172 0.307,0.261 0.513,0.226 0.201,-0.037 0.359,-0.192 0.4,-0.394 0.026,-0.131 0.627,-3.241 -1.221,-5.953 -0.021,-0.031 -0.046,-0.061 -0.074,-0.086 -3.575,-3.297 -7.393,-4.466 -14.589,-4.466 -11.495,0 -20.5,5.893 -20.496,13.472 0.011,1.722 0.5,3.399 1.455,4.988 3.06,5.086 10.533,8.373 19.041,8.373 6.592,0 12.584,-1.939 16.44,-5.32 1.052,-0.923 2.957,-3.563 3.109,-3.979 0.671,-1.831 2.111,-6.464 1.622,-11.317 0.084,-0.208 0.15,-0.426 0.176,-0.659 0.012,-0.108 1.264,-10.907 8.005,-15.199 1.682,-1.071 3.612,-1.634 5.767,-1.705 l -1.066,2.717 c -0.051,0.128 -0.034,0.274 0.042,0.389 0.077,0.115 0.206,0.185 0.344,0.187 l 11.391,0.172 c 0.003,0 0.005,0 0.007,0 0.173,0 0.329,-0.106 0.393,-0.268 l 0.311,-0.792 c 0.187,0.267 0.349,0.554 0.482,0.859 0.525,1.204 0.551,2.54 0.07,3.762 -0.101,0.257 0.026,0.547 0.283,0.648 0.06,0.023 0.122,0.034 0.183,0.034 0.199,0 0.388,-0.12 0.466,-0.317 0.577,-1.471 0.547,-3.079 -0.085,-4.527 -0.236,-0.541 -0.566,-1.016 -0.938,-1.454 0.574,-0.067 1.142,-0.216 1.687,-0.454 1.448,-0.632 2.563,-1.791 3.141,-3.262 0.099,-0.251 -0.028,-0.541 -0.285,-0.642 z M 54.563,65.855 C 54.516,65.798 54.458,65.753 54.39,65.722 54.138,65.604 53.881,65.49 53.619,65.379 50.181,63.922 46.082,63.151 41.763,63.151 c -1.973,0 -3.922,0.163 -5.792,0.485 -2.501,0.431 -4.8,1.132 -6.835,2.085 -0.066,0.031 -0.125,0.076 -0.171,0.133 -0.917,1.097 -1.381,2.258 -1.381,3.449 0,0.5 0.092,1.021 0.274,1.549 0.052,0.149 0.171,0.266 0.321,0.313 0.05,0.016 0.101,0.023 0.151,0.023 0.104,0 0.206,-0.032 0.292,-0.095 1.956,-1.408 4.785,-2.497 7.964,-3.064 6.734,-1.204 14.106,0.099 18.217,2.997 0.133,0.095 0.306,0.117 0.457,0.063 0.153,-0.056 0.271,-0.182 0.313,-0.339 0.13,-0.477 0.472,-2.008 0.531,-2.338 0.022,-0.124 -0.003,-0.252 -0.071,-0.358 l -0.126,-0.197 c -0.509,-0.803 -1.067,-1.67 -1.344,-2.002 z"></path>
      </g>
    </g>
    <g id="hydra">
      <use xlink:href="#Hydra" transform="scale(0.6)"></use>
    </g>
    <g id="hydra_s">
      <use xlink:href="#hydra" transform="translate(0, 20)"></use>
    </g>
    <g id="OldOak">
      <g transform="translate(-50.0545,-50.05)">
        <path d="M 94.5,79.6 93.7,79 c 0,0 -3.8,-2.9 -6.7,-6.4 -2.9,-3.5 -5.2,-17.5 -5.8,-21 -0.6,-3.5 -2.9,-13.5 -3.8,-16.4 -0.9,-2.9 -1,-9.4 -1,-9.4 l -0.6,3.2 -0.4,5.4 -2.1,-8.6 -2.5,-7.5 1.9,10.3 -0.8,-1.6 -1.6,-3.3 1,4.7 c 0,0 1.9,8.8 3.5,13.2 1.6,4.4 1.8,14.3 1.8,14.3 -0.1,-0.8 -0.5,-1.9 -1,-3 v 0 l -5.2,-8 C 68.9,44.8 66.3,40.6 66.3,40.6 L 62.9,34.4 H 62 l 1.5,2.9 C 62.8,37.3 58.4,36 58.4,36 l 1.9,3.3 -1.9,-0.6 c 0,0 0.9,1.4 2.3,2.9 1.4,1.5 2.1,5 2.1,5 l -2.3,-1.9 h -1.1 c 0,0 7.8,9.7 8.6,12.6 0.8,2.9 3.3,10.9 2.5,14.9 -0.5,2.6 -2.7,4.8 -4.1,5.9 -0.5,0.4 -0.3,1.2 0.3,1.4 0.8,0.2 1.7,0.4 2.3,0.5 0.1,0 0.1,0 0.2,0 1.4,0 4.1,-1.3 8.1,-1.6 1.1,-0.1 2.2,-0.1 3.3,-0.1 2.9,0 5.6,0.4 7,0.9 1.9,0.8 3.3,2.1 5.2,2.5 0.2,0 0.4,0.1 0.6,0.1 0.3,0 0.6,0 0.9,-0.1 0.8,-0.3 1,-1.5 0.2,-2.1 z"></path>
        <path d="m 58.1,44 c 0.3,-0.5 0.8,-0.9 1.4,-0.9 H 60 c -0.1,-0.2 -0.3,-0.4 -0.4,-0.6 -0.4,-0.4 -0.7,-0.8 -1,-1.2 -2,0.6 -4.2,1.4 -5.9,2.3 -0.7,0.4 -1.7,0.9 -2.8,1.5 -1.7,-0.5 -3.8,-1.2 -5.6,-2.5 -0.6,-1.3 -2.7,-5 -7.4,-8.9 v 0 c 0,0 -1,-4.2 -2,-5.4 -1,-1.2 -1.8,-2 0,-7 l -1.4,1.6 c 0,0 -1.4,3.6 0,4.9 1,0.9 1.5,3.3 1.8,4.6 C 29.9,28.3 30,29.9 23.7,23.6 h -1 c 0,0 2.3,3.7 4,5 0,0 7.3,4.8 9.9,7 1.6,1.4 2.6,3 3.1,4 -3.4,-1.2 -7,-0.8 -7,-0.8 0,0 -5.5,0.2 -9.2,-2.5 -3.7,-2.7 -3.7,-2.7 -3.7,-2.7 v 0.9 c 0,0 1.5,2.2 3.4,3.4 0.8,0.5 1.9,1.1 3.3,1.6 -1.6,0.3 -4,0.7 -5.5,1.3 -2.4,0.9 -6.4,-1 -6.4,-1 2.8,2.3 5.2,2.3 5.2,2.3 2.7,-1 8.6,-2 8.6,-2 v 0 c 1.6,0.4 3.6,0.7 5.7,0.6 5.2,-0.2 7.1,3.7 10.1,4.8 1,0.3 1.7,0.9 2.3,1.5 -4.2,2.6 -9.2,5.7 -12.4,7.2 -0.4,0.2 -1,0.5 -1.6,0.8 -1,-0.3 -2.3,-0.9 -4.1,-1.7 C 24.5,51.5 19.8,51.6 16,51.1 12,51 8.7,48.3 8.7,48.3 L 6.8,46.5 C 6.3,46.1 5.7,45.8 5.1,45.8 c 0,0 3.4,4.5 6.7,6 1.9,0.8 4.6,1.4 7.2,1.9 -1.2,0.9 -3.2,2.1 -4.4,2.2 -1.9,0.2 -3.7,-1.7 -5.7,-2 -0.6,-0.1 -1.1,0 -1.5,0.1 -0.6,0.2 -0.4,1.1 0.2,1 0,0 0.1,0 0.1,0 1.9,-0.3 1.8,0.9 5.5,1.9 3.7,1 8.2,-2.7 8.2,-2.7 v 0 c 1,0.2 1.8,0.3 2.5,0.4 1.8,0.3 4.3,1.5 6,2.3 -6.5,3.9 -16.2,10.3 -16.2,10.3 L 10.8,69 c 0,0 -0.4,2.3 0.9,2.7 0.1,0 0.1,0 0.2,0 1.6,0 7.1,-3.1 10.2,-4.5 0.1,0.9 0.4,2 1,2.5 1.3,1 2.5,2.6 2.5,2.6 0,0 3,0.5 2.6,-0.6 -0.3,-1.1 -2.7,-1.9 -3.6,-2.8 -0.5,-0.5 -0.3,-1.7 0,-2.8 4.2,-1.6 11.6,-4.2 14,-6.1 0.8,-0.6 2.3,-1.4 4,-2.2 0.3,0.9 0.8,2 1.7,3.3 2.1,3.1 1,4.9 1.5,6.5 0.5,1.5 -4.5,3.5 -4.5,3.5 0,0 -0.8,-0.9 -2.4,-2.4 -1.7,-1.5 -2,-1.3 -5.2,0.3 -3.2,1.7 -3.5,2.5 -3.5,2.5 2.5,0.4 3.5,-2 5.9,-2.4 1.6,-0.2 3,1.9 3.7,3.3 0.4,0.7 1.2,0.9 1.8,0.5 1.7,-1 4.8,-2.7 5.5,-3.2 1,-0.7 0.8,-4 0.8,-4 1.5,0.7 3.6,5 3.6,5 l 1,-1 c 0,0 -2.9,-6.2 -5.4,-8.8 -1.6,-1.7 -2,-3.4 -2,-4.4 3.6,-1.5 7.7,-3 10.1,-3.7 2.6,-0.8 5.2,-1.8 7.1,-1.8 -1.4,-2 -3,-4 -4.2,-5.5 -0.2,-0.3 -0.3,-0.9 0,-1.5 z"></path>
        <path d="m 70.5,43.4 c 0.4,0.1 0.8,0.3 1.1,0.7 l 3,4.7 c -0.2,-2.5 -0.6,-5 -1.2,-6.6 -0.2,-0.4 -0.3,-0.9 -0.5,-1.4 -1.5,-0.7 -3.3,-1.3 -5.5,-1.3 0,0 -0.1,0 -0.1,0 l 0.2,0.4 c 1,1.6 2.5,3.3 3,3.5 z"></path>
      </g>
    </g>
    <g id="oldoak">
      <use xlink:href="#OldOak" transform="scale(0.6)"></use>
    </g>
    <g id="grass_w">
      <use xlink:href="#grass" transform="scale(1.2)"></use>
    </g>
    <g id="trees_sw">
      <use xlink:href="#trees" transform="translate(-20, 40)"></use>
    </g>
    <g id="green">
      <polygon fill="#77904c" points="-100.0,0.0 -50.0,86.6 50.0,86.6 100.0,0.0 50.0,-86.6 -50.0,-86.6"></polygon>
    </g>
    <g id="light-green">
      <polygon fill="#b7c18c" points="-100.0,0.0 -50.0,86.6 50.0,86.6 100.0,0.0 50.0,-86.6 -50.0,-86.6"></polygon>
    </g>
    <g id="light-soil">
      <polygon fill="#e5de47" points="-100.0,0.0 -50.0,86.6 50.0,86.6 100.0,0.0 50.0,-86.6 -50.0,-86.6"></polygon>
    </g>
    <g id="white">
      <polygon fill="#f7f7f7" points="-100.0,0.0 -50.0,86.6 50.0,86.6 100.0,0.0 50.0,-86.6 -50.0,-86.6"></polygon>
    </g>
  </defs>
  <g id="map" transform="matrix(6.123233995736766e-17,1,-1,6.123233995736766e-17,1622,6.0620016557793985e-15)">
    <g id="backgrounds">
      <use x="150.0" y="259.8" xlink:href="#white"></use>
      <use x="150.0" y="433.0" xlink:href="#white"></use>
      <use x="150.0" y="606.2" xlink:href="#white"></use>
      <use x="150.0" y="779.4" xlink:href="#white"></use>
      <use x="150.0" y="952.6" xlink:href="#white"></use>
      <use x="150.0" y="1125.8" xlink:href="#white"></use>
      <use x="150.0" y="1299.0" xlink:href="#white"></use>
      <use x="300.0" y="173.2" xlink:href="#light-green"></use>
      <use x="300.0" y="346.4" xlink:href="#light-green"></use>
      <use x="300.0" y="519.6" xlink:href="#light-green"></use>
      <use x="300.0" y="692.8" xlink:href="#light-green"></use>
      <use x="300.0" y="866.0" xlink:href="#green"></use>
      <use x="300.0" y="1039.2" xlink:href="#white"></use>
      <use x="300.0" y="1212.4" xlink:href="#white"></use>
      <use x="450.0" y="259.8" xlink:href="#light-green"></use>
      <use x="450.0" y="433.0" xlink:href="#light-green"></use>
      <use x="450.0" y="606.2" xlink:href="#green"></use>
      <use x="450.0" y="779.4" xlink:href="#green"></use>
      <use x="450.0" y="952.6" xlink:href="#white"></use>
      <use x="450.0" y="1125.8" xlink:href="#white"></use>
      <use x="450.0" y="1299.0" xlink:href="#white"></use>
      <use x="600.0" y="173.2" xlink:href="#light-green"></use>
      <use x="600.0" y="346.4" xlink:href="#light-soil"></use>
      <use x="600.0" y="519.6" xlink:href="#light-soil"></use>
      <use x="600.0" y="692.8" xlink:href="#green"></use>
      <use x="600.0" y="866.0" xlink:href="#green"></use>
      <use x="600.0" y="1039.2" xlink:href="#white"></use>
      <use x="600.0" y="1212.4" xlink:href="#white"></use>
      <use x="750.0" y="259.8" xlink:href="#white"></use>
      <use x="750.0" y="433.0" xlink:href="#white"></use>
      <use x="750.0" y="606.2" xlink:href="#white"></use>
      <use x="750.0" y="779.4" xlink:href="#white"></use>
      <use x="750.0" y="952.6" xlink:href="#white"></use>
      <use x="750.0" y="1125.8" xlink:href="#white"></use>
      <use x="750.0" y="1299.0" xlink:href="#white"></use>
      <use x="900.0" y="173.2" xlink:href="#white"></use>
      <use x="900.0" y="346.4" xlink:href="#white"></use>
      <use x="900.0" y="519.6" xlink:href="#white"></use>
      <use x="900.0" y="692.8" xlink:href="#white"></use>
      <use x="900.0" y="866.0" xlink:href="#white"></use>
      <use x="900.0" y="1039.2" xlink:href="#white"></use>
      <use x="900.0" y="1212.4" xlink:href="#white"></use>
      <use x="1050.0" y="259.8" xlink:href="#white"></use>
      <use x="1050.0" y="433.0" xlink:href="#white"></use>
      <use x="1050.0" y="606.2" xlink:href="#white"></use>
      <use x="1050.0" y="779.4" xlink:href="#white"></use>
      <use x="1050.0" y="952.6" xlink:href="#white"></use>
      <use x="1050.0" y="1125.8" xlink:href="#white"></use>
      <use x="1050.0" y="1299.0" xlink:href="#white"></use>
      <use x="1200.0" y="173.2" xlink:href="#white"></use>
      <use x="1200.0" y="346.4" xlink:href="#white"></use>
      <use x="1200.0" y="519.6" xlink:href="#white"></use>
      <use x="1200.0" y="692.8" xlink:href="#white"></use>
      <use x="1200.0" y="866.0" xlink:href="#white"></use>
      <use x="1200.0" y="1039.2" xlink:href="#white"></use>
      <use x="1200.0" y="1212.4" xlink:href="#white"></use>
      <use x="1350.0" y="259.8" xlink:href="#white"></use>
      <use x="1350.0" y="433.0" xlink:href="#white"></use>
      <use x="1350.0" y="606.2" xlink:href="#white"></use>
      <use x="1350.0" y="779.4" xlink:href="#white"></use>
      <use x="1350.0" y="952.6" xlink:href="#white"></use>
      <use x="1350.0" y="1125.8" xlink:href="#white"></use>
      <use x="1350.0" y="1299.0" xlink:href="#white"></use>
      <use x="1500.0" y="173.2" xlink:href="#white"></use>
      <use x="1500.0" y="346.4" xlink:href="#white"></use>
      <use x="1500.0" y="519.6" xlink:href="#white"></use>
      <use x="1500.0" y="692.8" xlink:href="#white"></use>
      <use x="1500.0" y="866.0" xlink:href="#white"></use>
      <use x="1500.0" y="1039.2" xlink:href="#white"></use>
      <use x="1500.0" y="1212.4" xlink:href="#white"></use>
      <use x="1650.0" y="259.8" xlink:href="#white"></use>
      <use x="1650.0" y="433.0" xlink:href="#white"></use>
      <use x="1650.0" y="606.2" xlink:href="#white"></use>
      <use x="1650.0" y="779.4" xlink:href="#white"></use>
      <use x="1650.0" y="952.6" xlink:href="#white"></use>
      <use x="1650.0" y="1125.8" xlink:href="#white"></use>
      <use x="1650.0" y="1299.0" xlink:href="#white"></use>
    </g>
    <g id="lines">
      <path id="line0" stroke="#e3bea3" stroke-width="6" fill="none" d="M150.0,138.6 C150.0,173.2 150.0,138.6 150.0,173.2 S150.0,311.8 150.0,346.4 S195.0,459.0 225.0,476.3 S255.0,545.6 225.0,562.9 S105.0,632.2 75.0,649.5 L45.0,666.8"></path>
      <path id="line1" stroke="#e3bea3" stroke-width="6" fill="none" d="M150.0,381.1 C150.0,346.4 150.0,381.1 150.0,346.4 S150.0,207.8 150.0,173.2 L150.0,138.6"></path>
      <path id="line2" transform="translate(20,10)" stroke="#6ebae7" stroke-width="8" fill="none" opacity="0.7" d="M450.0,900.7 C450.0,866.0 450.0,900.7 450.0,866.0 S495.0,753.4 525.0,736.1 S645.0,666.8 675.0,649.5 S795.0,580.2 825.0,562.9 L855.0,545.6"></path>
      <path id="line3" transform="translate(20,10)" stroke="#6ebae7" stroke-width="8" fill="none" opacity="0.7" d="M795.0,580.2 C825.0,562.9 795.0,580.2 825.0,562.9 L855.0,545.6"></path>
      <path id="line4" transform="translate(20,10)" stroke="#6ebae7" stroke-width="8" fill="none" opacity="0.7" d="M645.0,1013.2 C675.0,995.9 645.0,1013.2 675.0,995.9 S795.0,978.6 825.0,995.9 L855.0,1013.2"></path>
      <path id="line5" transform="translate(20,10)" stroke="#6ebae7" stroke-width="8" fill="none" opacity="0.7" d="M795.0,978.6 C825.0,995.9 795.0,978.6 825.0,995.9 L855.0,1013.2"></path>
      <path id="line6" transform="translate(20,10)" stroke="#6ebae7" stroke-width="8" fill="none" opacity="0.7" d="M705.0,112.6 C675.0,129.9 705.0,112.6 675.0,129.9 S645.0,199.2 675.0,216.5 L705.0,233.8"></path>
    </g>
    <g id="things">
      <use x="150.0" y="259.8" xlink:href="#grass_w" transform="matrix(6.123233995736766e-17,-1,1,6.123233995736766e-17,-109.80000000000001,409.79999999999995)"></use>
      <use x="150.0" y="433.0" xlink:href="#grass_w" transform="matrix(6.123233995736766e-17,-1,1,6.123233995736766e-17,-283,583)"></use>
      <use x="150.0" y="606.2" xlink:href="#grass_w" transform="matrix(6.123233995736766e-17,-1,1,6.123233995736766e-17,-456.20000000000005,756.2)"></use>
      <use x="150.0" y="779.4" xlink:href="#grass_w" transform="matrix(6.123233995736766e-17,-1,1,6.123233995736766e-17,-629.4,929.3999999999999)"></use>
      <use x="150.0" y="952.6" xlink:href="#grass_w" transform="matrix(6.123233995736766e-17,-1,1,6.123233995736766e-17,-802.6,1102.6)"></use>
      <use x="300.0" y="173.2" xlink:href="#grass_w" transform="matrix(6.123233995736766e-17,-1,1,6.123233995736766e-17,126.79999999999998,473.2)"></use>
      <use x="300.0" y="173.2" xlink:href="#cliff0"></use>
      <use x="300.0" y="173.2" xlink:href="#cliff1"></use>
      <use x="300.0" y="173.2" xlink:href="#cliff2"></use>
      <use x="300.0" y="173.2" xlink:href="#cliff5"></use>
      <use x="300.0" y="346.4" xlink:href="#grass_w" transform="matrix(6.123233995736766e-17,-1,1,6.123233995736766e-17,-46.39999999999998,646.4)"></use>
      <use x="300.0" y="346.4" xlink:href="#keep" transform="matrix(6.123233995736766e-17,-1,1,6.123233995736766e-17,-46.39999999999998,646.4)"></use>
      <use x="300.0" y="346.4" xlink:href="#cliff0"></use>
      <use x="300.0" y="346.4" xlink:href="#cliff5"></use>
      <use x="300.0" y="519.6" xlink:href="#grass_w" transform="matrix(6.123233995736766e-17,-1,1,6.123233995736766e-17,-219.60000000000002,819.5999999999999)"></use>
      <use x="300.0" y="519.6" xlink:href="#castle" transform="matrix(6.123233995736766e-17,-1,1,6.123233995736766e-17,-219.60000000000002,819.5999999999999)"></use>
      <use x="300.0" y="519.6" xlink:href="#cliff0"></use>
      <use x="300.0" y="519.6" xlink:href="#cliff5"></use>
      <use x="300.0" y="692.8" xlink:href="#grass_w" transform="matrix(6.123233995736766e-17,-1,1,6.123233995736766e-17,-392.79999999999995,992.8)"></use>
      <use x="300.0" y="692.8" xlink:href="#trees_sw" transform="matrix(6.123233995736766e-17,-1,1,6.123233995736766e-17,-392.79999999999995,992.8)"></use>
      <use x="300.0" y="692.8" xlink:href="#cliff0"></use>
      <use x="300.0" y="692.8" xlink:href="#cliff5"></use>
      <use x="300.0" y="866.0" xlink:href="#forest" transform="matrix(6.123233995736766e-17,-1,1,6.123233995736766e-17,-566,1166)"></use>
      <use x="300.0" y="866.0" xlink:href="#beartrap" transform="matrix(6.123233995736766e-17,-1,1,6.123233995736766e-17,-566,1166)"></use>
      <use x="300.0" y="866.0" xlink:href="#cliff0"></use>
      <use x="300.0" y="866.0" xlink:href="#cliff5"></use>
      <use x="300.0" y="1039.2" xlink:href="#grass_w" transform="matrix(6.123233995736766e-17,-1,1,6.123233995736766e-17,-739.2,1339.2)"></use>
      <use x="300.0" y="1039.2" xlink:href="#cliff0"></use>
      <use x="300.0" y="1039.2" xlink:href="#cliff5"></use>
      <use x="300.0" y="1212.4" xlink:href="#cliff0"></use>
      <use x="300.0" y="1212.4" xlink:href="#cliff5"></use>
      <use x="300.0" y="1212.4" xlink:href="#cliff4"></use>
      <use x="450.0" y="259.8" xlink:href="#grass_w" transform="matrix(6.123233995736766e-17,-1,1,6.123233995736766e-17,190.2,709.8)"></use>
      <use x="450.0" y="259.8" xlink:href="#cliff1"></use>
      <use x="450.0" y="433.0" xlink:href="#grass_w" transform="matrix(6.123233995736766e-17,-1,1,6.123233995736766e-17,17,883)"></use>
      <use x="450.0" y="433.0" xlink:href="#cave" transform="matrix(6.123233995736766e-17,-1,1,6.123233995736766e-17,17,883)"></use>
      <use x="450.0" y="606.2" xlink:href="#forest" transform="matrix(6.123233995736766e-17,-1,1,6.123233995736766e-17,-156.20000000000005,1056.2)"></use>
      <use x="450.0" y="606.2" xlink:href="#cave" transform="matrix(6.123233995736766e-17,-1,1,6.123233995736766e-17,-156.20000000000005,1056.2)"></use>
      <use x="450.0" y="779.4" xlink:href="#forest" transform="matrix(6.123233995736766e-17,-1,1,6.123233995736766e-17,-329.4,1229.3999999999999)"></use>
      <use x="450.0" y="779.4" xlink:href="#pixie" transform="matrix(6.123233995736766e-17,-1,1,6.123233995736766e-17,-329.4,1229.3999999999999)"></use>
      <use x="450.0" y="952.6" xlink:href="#forest" transform="matrix(6.123233995736766e-17,-1,1,6.123233995736766e-17,-502.6,1402.6)"></use>
      <use x="450.0" y="1299.0" xlink:href="#cliff3"></use>
      <use x="450.0" y="1299.0" xlink:href="#cliff4"></use>
      <use x="450.0" y="1299.0" xlink:href="#cliff5"></use>
      <use x="600.0" y="173.2" xlink:href="#grass" transform="matrix(6.123233995736766e-17,-1,1,6.123233995736766e-17,426.79999999999995,773.2)"></use>
      <use x="600.0" y="173.2" xlink:href="#hydra" transform="matrix(6.123233995736766e-17,-1,1,6.123233995736766e-17,426.79999999999995,773.2)"></use>
      <use x="600.0" y="173.2" xlink:href="#cliff0"></use>
      <use x="600.0" y="173.2" xlink:href="#cliff1"></use>
      <use x="600.0" y="173.2" xlink:href="#cliff2"></use>
      <use x="600.0" y="346.4" xlink:href="#hill" transform="matrix(6.123233995736766e-17,-1,1,6.123233995736766e-17,253.59999999999997,946.4)"></use>
      <use x="600.0" y="346.4" xlink:href="#oldoak" transform="matrix(6.123233995736766e-17,-1,1,6.123233995736766e-17,253.59999999999997,946.4)"></use>
      <use x="600.0" y="519.6" xlink:href="#hill" transform="matrix(6.123233995736766e-17,-1,1,6.123233995736766e-17,80.39999999999998,1119.6)"></use>
      <use x="600.0" y="519.6" xlink:href="#cave" transform="matrix(6.123233995736766e-17,-1,1,6.123233995736766e-17,80.39999999999998,1119.6)"></use>
      <use x="600.0" y="692.8" xlink:href="#forest" transform="matrix(6.123233995736766e-17,-1,1,6.123233995736766e-17,-92.79999999999995,1292.8)"></use>
      <use x="600.0" y="692.8" xlink:href="#camp" transform="matrix(6.123233995736766e-17,-1,1,6.123233995736766e-17,-92.79999999999995,1292.8)"></use>
      <use x="600.0" y="866.0" xlink:href="#forest" transform="matrix(6.123233995736766e-17,-1,1,6.123233995736766e-17,-266,1466)"></use>
      <use x="600.0" y="866.0" xlink:href="#ruins" transform="matrix(6.123233995736766e-17,-1,1,6.123233995736766e-17,-266,1466)"></use>
      <use x="600.0" y="1039.2" xlink:href="#forest" transform="matrix(6.123233995736766e-17,-1,1,6.123233995736766e-17,-439.20000000000005,1639.1999999999998)"></use>
      <use x="600.0" y="1212.4" xlink:href="#cliff4"></use>
      <use x="750.0" y="259.8" xlink:href="#hill" transform="matrix(6.123233995736766e-17,-1,1,6.123233995736766e-17,490.19999999999993,1009.8)"></use>
      <use x="750.0" y="259.8" xlink:href="#cliff1"></use>
      <use x="750.0" y="433.0" xlink:href="#hill" transform="matrix(6.123233995736766e-17,-1,1,6.123233995736766e-17,316.99999999999994,1183)"></use>
      <use x="750.0" y="606.2" xlink:href="#hill" transform="matrix(6.123233995736766e-17,-1,1,6.123233995736766e-17,143.79999999999995,1356.2)"></use>
      <use x="750.0" y="606.2" xlink:href="#ropebridge" transform="matrix(6.123233995736766e-17,-1,1,6.123233995736766e-17,143.79999999999995,1356.2)"></use>
      <use x="750.0" y="779.4" xlink:href="#forest" transform="matrix(6.123233995736766e-17,-1,1,6.123233995736766e-17,-29.399999999999977,1529.4)"></use>
      <use x="750.0" y="952.6" xlink:href="#forest" transform="matrix(6.123233995736766e-17,-1,1,6.123233995736766e-17,-202.60000000000002,1702.6)"></use>
      <use x="750.0" y="1299.0" xlink:href="#cliff3"></use>
      <use x="750.0" y="1299.0" xlink:href="#cliff4"></use>
      <use x="750.0" y="1299.0" xlink:href="#cliff5"></use>
      <use x="900.0" y="173.2" xlink:href="#cliff0"></use>
      <use x="900.0" y="173.2" xlink:href="#cliff1"></use>
      <use x="900.0" y="173.2" xlink:href="#cliff2"></use>
      <use x="900.0" y="519.6" xlink:href="#hill" transform="matrix(6.123233995736766e-17,-1,1,6.123233995736766e-17,380.4,1419.6)"></use>
      <use x="900.0" y="692.8" xlink:href="#hill" transform="matrix(6.123233995736766e-17,-1,1,6.123233995736766e-17,207.20000000000005,1592.8)"></use>
      <use x="900.0" y="866.0" xlink:href="#forest" transform="matrix(6.123233995736766e-17,-1,1,6.123233995736766e-17,34,1766)"></use>
      <use x="900.0" y="1039.2" xlink:href="#forest" transform="matrix(6.123233995736766e-17,-1,1,6.123233995736766e-17,-139.20000000000005,1939.1999999999998)"></use>
      <use x="900.0" y="1212.4" xlink:href="#cliff4"></use>
      <use x="1050.0" y="259.8" xlink:href="#cliff1"></use>
      <use x="1050.0" y="259.8" xlink:href="#cliff2"></use>
      <use x="1050.0" y="259.8" xlink:href="#cliff3"></use>
      <use x="1050.0" y="433.0" xlink:href="#cliff3"></use>
      <use x="1050.0" y="433.0" xlink:href="#cliff2"></use>
      <use x="1050.0" y="606.2" xlink:href="#cliff3"></use>
      <use x="1050.0" y="606.2" xlink:href="#cliff2"></use>
      <use x="1050.0" y="779.4" xlink:href="#cliff3"></use>
      <use x="1050.0" y="779.4" xlink:href="#cliff2"></use>
      <use x="1050.0" y="952.6" xlink:href="#cliff3"></use>
      <use x="1050.0" y="952.6" xlink:href="#cliff2"></use>
      <use x="1050.0" y="1125.8" xlink:href="#cliff3"></use>
      <use x="1050.0" y="1125.8" xlink:href="#cliff2"></use>
      <use x="1050.0" y="1299.0" xlink:href="#cliff2"></use>
      <use x="1050.0" y="1299.0" xlink:href="#cliff3"></use>
      <use x="1050.0" y="1299.0" xlink:href="#cliff4"></use>
      <use x="1050.0" y="1299.0" xlink:href="#cliff5"></use>
    </g>
    <g id="coordinates">
      <text text-anchor="middle" x="150.0" y="190.5" font-size="20pt" dy="15px" transform="matrix(6.123233995736766e-17,-1,1,6.123233995736766e-17,-106.5,406.5)">01.02</text>
      <text text-anchor="middle" x="150.0" y="363.7" font-size="20pt" dy="15px" transform="matrix(6.123233995736766e-17,-1,1,6.123233995736766e-17,-279.7,579.6999999999999)">01.03</text>
      <text text-anchor="middle" x="150.0" y="536.9" font-size="20pt" dy="15px" transform="matrix(6.123233995736766e-17,-1,1,6.123233995736766e-17,-452.9,752.9)">01.04</text>
      <text text-anchor="middle" x="150.0" y="710.1" font-size="20pt" dy="15px" transform="matrix(6.123233995736766e-17,-1,1,6.123233995736766e-17,-626.1,926.0999999999999)">01.05</text>
      <text text-anchor="middle" x="150.0" y="883.3" font-size="20pt" dy="15px" transform="matrix(6.123233995736766e-17,-1,1,6.123233995736766e-17,-799.3,1099.3)">01.06</text>
      <text text-anchor="middle" x="150.0" y="1056.6" font-size="20pt" dy="15px" transform="matrix(6.123233995736766e-17,-1,1,6.123233995736766e-17,-972.5999999999999,1272.6)">01.07</text>
      <text text-anchor="middle" x="150.0" y="1229.8" font-size="20pt" dy="15px" transform="matrix(6.123233995736766e-17,-1,1,6.123233995736766e-17,-1145.8,1445.8)">01.08</text>
      <text text-anchor="middle" x="300.0" y="103.9" font-size="20pt" dy="15px" transform="matrix(6.123233995736766e-17,-1,1,6.123233995736766e-17,130.09999999999997,469.9)">02.01</text>
      <text text-anchor="middle" x="300.0" y="277.1" font-size="20pt" dy="15px" transform="matrix(6.123233995736766e-17,-1,1,6.123233995736766e-17,-43.10000000000002,643.1)">02.02</text>
      <text text-anchor="middle" x="300.0" y="450.3" font-size="20pt" dy="15px" transform="matrix(6.123233995736766e-17,-1,1,6.123233995736766e-17,-216.3,816.3)">02.03</text>
      <text text-anchor="middle" x="300.0" y="623.5" font-size="20pt" dy="15px" transform="matrix(6.123233995736766e-17,-1,1,6.123233995736766e-17,-389.5,989.5)">02.04</text>
      <text text-anchor="middle" x="300.0" y="796.7" font-size="20pt" dy="15px" transform="matrix(6.123233995736766e-17,-1,1,6.123233995736766e-17,-562.7,1162.7)">02.05</text>
      <text text-anchor="middle" x="300.0" y="969.9" font-size="20pt" dy="15px" transform="matrix(6.123233995736766e-17,-1,1,6.123233995736766e-17,-735.9,1335.8999999999999)">02.06</text>
      <text text-anchor="middle" x="300.0" y="1143.2" font-size="20pt" dy="15px" transform="matrix(6.123233995736766e-17,-1,1,6.123233995736766e-17,-909.2,1509.2)">02.07</text>
      <text text-anchor="middle" x="450.0" y="190.5" font-size="20pt" dy="15px" transform="matrix(6.123233995736766e-17,-1,1,6.123233995736766e-17,193.5,706.5)">03.02</text>
      <text text-anchor="middle" x="450.0" y="363.7" font-size="20pt" dy="15px" transform="matrix(6.123233995736766e-17,-1,1,6.123233995736766e-17,20.30000000000001,879.7)">03.03</text>
      <text text-anchor="middle" x="450.0" y="536.9" font-size="20pt" dy="15px" transform="matrix(6.123233995736766e-17,-1,1,6.123233995736766e-17,-152.89999999999998,1052.8999999999999)">03.04</text>
      <text text-anchor="middle" x="450.0" y="710.1" font-size="20pt" dy="15px" transform="matrix(6.123233995736766e-17,-1,1,6.123233995736766e-17,-326.1,1226.1)">03.05</text>
      <text text-anchor="middle" x="450.0" y="883.3" font-size="20pt" dy="15px" transform="matrix(6.123233995736766e-17,-1,1,6.123233995736766e-17,-499.29999999999995,1399.3)">03.06</text>
      <text text-anchor="middle" x="450.0" y="1056.6" font-size="20pt" dy="15px" transform="matrix(6.123233995736766e-17,-1,1,6.123233995736766e-17,-672.5999999999999,1572.6)">03.07</text>
      <text text-anchor="middle" x="450.0" y="1229.8" font-size="20pt" dy="15px" transform="matrix(6.123233995736766e-17,-1,1,6.123233995736766e-17,-845.8,1745.8)">03.08</text>
      <text text-anchor="middle" x="600.0" y="103.9" font-size="20pt" dy="15px" transform="matrix(6.123233995736766e-17,-1,1,6.123233995736766e-17,430.09999999999997,769.9)">04.01</text>
      <text text-anchor="middle" x="600.0" y="277.1" font-size="20pt" dy="15px" transform="matrix(6.123233995736766e-17,-1,1,6.123233995736766e-17,256.8999999999999,943.1)">04.02</text>
      <text text-anchor="middle" x="600.0" y="450.3" font-size="20pt" dy="15px" transform="matrix(6.123233995736766e-17,-1,1,6.123233995736766e-17,83.69999999999993,1116.3)">04.03</text>
      <text text-anchor="middle" x="600.0" y="623.5" font-size="20pt" dy="15px" transform="matrix(6.123233995736766e-17,-1,1,6.123233995736766e-17,-89.5,1289.5)">04.04</text>
      <text text-anchor="middle" x="600.0" y="796.7" font-size="20pt" dy="15px" transform="matrix(6.123233995736766e-17,-1,1,6.123233995736766e-17,-262.70000000000005,1462.7)">04.05</text>
      <text text-anchor="middle" x="600.0" y="969.9" font-size="20pt" dy="15px" transform="matrix(6.123233995736766e-17,-1,1,6.123233995736766e-17,-435.9,1635.8999999999999)">04.06</text>
      <text text-anchor="middle" x="600.0" y="1143.2" font-size="20pt" dy="15px" transform="matrix(6.123233995736766e-17,-1,1,6.123233995736766e-17,-609.2,1809.1999999999998)">04.07</text>
      <text text-anchor="middle" x="750.0" y="190.5" font-size="20pt" dy="15px" transform="matrix(6.123233995736766e-17,-1,1,6.123233995736766e-17,493.5,1006.5)">05.02</text>
      <text text-anchor="middle" x="750.0" y="363.7" font-size="20pt" dy="15px" transform="matrix(6.123233995736766e-17,-1,1,6.123233995736766e-17,320.29999999999995,1179.7)">05.03</text>
      <text text-anchor="middle" x="750.0" y="536.9" font-size="20pt" dy="15px" transform="matrix(6.123233995736766e-17,-1,1,6.123233995736766e-17,147.10000000000002,1352.9)">05.04</text>
      <text text-anchor="middle" x="750.0" y="710.1" font-size="20pt" dy="15px" transform="matrix(6.123233995736766e-17,-1,1,6.123233995736766e-17,-26.10000000000003,1526.1)">05.05</text>
      <text text-anchor="middle" x="750.0" y="883.3" font-size="20pt" dy="15px" transform="matrix(6.123233995736766e-17,-1,1,6.123233995736766e-17,-199.29999999999995,1699.3)">05.06</text>
      <text text-anchor="middle" x="750.0" y="1056.6" font-size="20pt" dy="15px" transform="matrix(6.123233995736766e-17,-1,1,6.123233995736766e-17,-372.5999999999999,1872.6)">05.07</text>
      <text text-anchor="middle" x="750.0" y="1229.8" font-size="20pt" dy="15px" transform="matrix(6.123233995736766e-17,-1,1,6.123233995736766e-17,-545.8,2045.7999999999997)">05.08</text>
      <text text-anchor="middle" x="900.0" y="103.9" font-size="20pt" dy="15px" transform="matrix(6.123233995736766e-17,-1,1,6.123233995736766e-17,730.0999999999999,1069.9)">06.01</text>
      <text text-anchor="middle" x="900.0" y="277.1" font-size="20pt" dy="15px" transform="matrix(6.123233995736766e-17,-1,1,6.123233995736766e-17,556.8999999999999,1243.1)">06.02</text>
      <text text-anchor="middle" x="900.0" y="450.3" font-size="20pt" dy="15px" transform="matrix(6.123233995736766e-17,-1,1,6.123233995736766e-17,383.69999999999993,1416.3)">06.03</text>
      <text text-anchor="middle" x="900.0" y="623.5" font-size="20pt" dy="15px" transform="matrix(6.123233995736766e-17,-1,1,6.123233995736766e-17,210.5,1589.5)">06.04</text>
      <text text-anchor="middle" x="900.0" y="796.7" font-size="20pt" dy="15px" transform="matrix(6.123233995736766e-17,-1,1,6.123233995736766e-17,37.299999999999955,1762.7)">06.05</text>
      <text text-anchor="middle" x="900.0" y="969.9" font-size="20pt" dy="15px" transform="matrix(6.123233995736766e-17,-1,1,6.123233995736766e-17,-135.89999999999998,1935.8999999999999)">06.06</text>
      <text text-anchor="middle" x="900.0" y="1143.2" font-size="20pt" dy="15px" transform="matrix(6.123233995736766e-17,-1,1,6.123233995736766e-17,-309.20000000000005,2109.2)">06.07</text>
      <text text-anchor="middle" x="1050.0" y="190.5" font-size="20pt" dy="15px" transform="matrix(6.123233995736766e-17,-1,1,6.123233995736766e-17,793.5,1306.5)">07.02</text>
      <text text-anchor="middle" x="1050.0" y="363.7" font-size="20pt" dy="15px" transform="matrix(6.123233995736766e-17,-1,1,6.123233995736766e-17,620.3,1479.7)">07.03</text>
      <text text-anchor="middle" x="1050.0" y="536.9" font-size="20pt" dy="15px" transform="matrix(6.123233995736766e-17,-1,1,6.123233995736766e-17,447.0999999999999,1652.9)">07.04</text>
      <text text-anchor="middle" x="1050.0" y="710.1" font-size="20pt" dy="15px" transform="matrix(6.123233995736766e-17,-1,1,6.123233995736766e-17,273.89999999999986,1826.1)">07.05</text>
      <text text-anchor="middle" x="1050.0" y="883.3" font-size="20pt" dy="15px" transform="matrix(6.123233995736766e-17,-1,1,6.123233995736766e-17,100.69999999999993,1999.3)">07.06</text>
      <text text-anchor="middle" x="1050.0" y="1056.6" font-size="20pt" dy="15px" transform="matrix(6.123233995736766e-17,-1,1,6.123233995736766e-17,-72.59999999999991,2172.6)">07.07</text>
      <text text-anchor="middle" x="1050.0" y="1229.8" font-size="20pt" dy="15px" transform="matrix(6.123233995736766e-17,-1,1,6.123233995736766e-17,-245.79999999999995,2345.8)">07.08</text>
      <text text-anchor="middle" x="1200.0" y="103.9" font-size="20pt" dy="15px" transform="matrix(6.123233995736766e-17,-1,1,6.123233995736766e-17,1030.1,1369.9)">08.01</text>
      <text text-anchor="middle" x="1200.0" y="277.1" font-size="20pt" dy="15px" transform="matrix(6.123233995736766e-17,-1,1,6.123233995736766e-17,856.8999999999999,1543.1)">08.02</text>
      <text text-anchor="middle" x="1200.0" y="450.3" font-size="20pt" dy="15px" transform="matrix(6.123233995736766e-17,-1,1,6.123233995736766e-17,683.6999999999999,1716.3)">08.03</text>
      <text text-anchor="middle" x="1200.0" y="623.5" font-size="20pt" dy="15px" transform="matrix(6.123233995736766e-17,-1,1,6.123233995736766e-17,510.4999999999999,1889.5)">08.04</text>
      <text text-anchor="middle" x="1200.0" y="796.7" font-size="20pt" dy="15px" transform="matrix(6.123233995736766e-17,-1,1,6.123233995736766e-17,337.29999999999984,2062.7)">08.05</text>
      <text text-anchor="middle" x="1200.0" y="969.9" font-size="20pt" dy="15px" transform="matrix(6.123233995736766e-17,-1,1,6.123233995736766e-17,164.0999999999999,2235.9)">08.06</text>
      <text text-anchor="middle" x="1200.0" y="1143.2" font-size="20pt" dy="15px" transform="matrix(6.123233995736766e-17,-1,1,6.123233995736766e-17,-9.200000000000053,2409.2)">08.07</text>
      <text text-anchor="middle" x="1350.0" y="190.5" font-size="20pt" dy="15px" transform="matrix(6.123233995736766e-17,-1,1,6.123233995736766e-17,1093.5,1606.5)">09.02</text>
      <text text-anchor="middle" x="1350.0" y="363.7" font-size="20pt" dy="15px" transform="matrix(6.123233995736766e-17,-1,1,6.123233995736766e-17,920.3,1779.7)">09.03</text>
      <text text-anchor="middle" x="1350.0" y="536.9" font-size="20pt" dy="15px" transform="matrix(6.123233995736766e-17,-1,1,6.123233995736766e-17,747.0999999999999,1952.9)">09.04</text>
      <text text-anchor="middle" x="1350.0" y="710.1" font-size="20pt" dy="15px" transform="matrix(6.123233995736766e-17,-1,1,6.123233995736766e-17,573.8999999999999,2126.1)">09.05</text>
      <text text-anchor="middle" x="1350.0" y="883.3" font-size="20pt" dy="15px" transform="matrix(6.123233995736766e-17,-1,1,6.123233995736766e-17,400.69999999999993,2299.3)">09.06</text>
      <text text-anchor="middle" x="1350.0" y="1056.6" font-size="20pt" dy="15px" transform="matrix(6.123233995736766e-17,-1,1,6.123233995736766e-17,227.4000000000001,2472.6)">09.07</text>
      <text text-anchor="middle" x="1350.0" y="1229.8" font-size="20pt" dy="15px" transform="matrix(6.123233995736766e-17,-1,1,6.123233995736766e-17,54.200000000000045,2645.8)">09.08</text>
      <text text-anchor="middle" x="1500.0" y="103.9" font-size="20pt" dy="15px" transform="matrix(6.123233995736766e-17,-1,1,6.123233995736766e-17,1330.1,1669.9)">10.01</text>
      <text text-anchor="middle" x="1500.0" y="277.1" font-size="20pt" dy="15px" transform="matrix(6.123233995736766e-17,-1,1,6.123233995736766e-17,1156.8999999999999,1843.1)">10.02</text>
      <text text-anchor="middle" x="1500.0" y="450.3" font-size="20pt" dy="15px" transform="matrix(6.123233995736766e-17,-1,1,6.123233995736766e-17,983.6999999999998,2016.3)">10.03</text>
      <text text-anchor="middle" x="1500.0" y="623.5" font-size="20pt" dy="15px" transform="matrix(6.123233995736766e-17,-1,1,6.123233995736766e-17,810.4999999999999,2189.5)">10.04</text>
      <text text-anchor="middle" x="1500.0" y="796.7" font-size="20pt" dy="15px" transform="matrix(6.123233995736766e-17,-1,1,6.123233995736766e-17,637.2999999999998,2362.7)">10.05</text>
      <text text-anchor="middle" x="1500.0" y="969.9" font-size="20pt" dy="15px" transform="matrix(6.123233995736766e-17,-1,1,6.123233995736766e-17,464.0999999999999,2535.9)">10.06</text>
      <text text-anchor="middle" x="1500.0" y="1143.2" font-size="20pt" dy="15px" transform="matrix(6.123233995736766e-17,-1,1,6.123233995736766e-17,290.79999999999995,2709.2)">10.07</text>
      <text text-anchor="middle" x="1650.0" y="190.5" font-size="20pt" dy="15px" transform="matrix(6.123233995736766e-17,-1,1,6.123233995736766e-17,1393.5,1906.5)">11.02</text>
      <text text-anchor="middle" x="1650.0" y="363.7" font-size="20pt" dy="15px" transform="matrix(6.123233995736766e-17,-1,1,6.123233995736766e-17,1220.3,2079.7)">11.03</text>
      <text text-anchor="middle" x="1650.0" y="536.9" font-size="20pt" dy="15px" transform="matrix(6.123233995736766e-17,-1,1,6.123233995736766e-17,1047.1,2252.9)">11.04</text>
      <text text-anchor="middle" x="1650.0" y="710.1" font-size="20pt" dy="15px" transform="matrix(6.123233995736766e-17,-1,1,6.123233995736766e-17,873.8999999999999,2426.1)">11.05</text>
      <text text-anchor="middle" x="1650.0" y="883.3" font-size="20pt" dy="15px" transform="matrix(6.123233995736766e-17,-1,1,6.123233995736766e-17,700.6999999999999,2599.3)">11.06</text>
      <text text-anchor="middle" x="1650.0" y="1056.6" font-size="20pt" dy="15px" transform="matrix(6.123233995736766e-17,-1,1,6.123233995736766e-17,527.4000000000001,2772.6)">11.07</text>
      <text text-anchor="middle" x="1650.0" y="1229.8" font-size="20pt" dy="15px" transform="matrix(6.123233995736766e-17,-1,1,6.123233995736766e-17,354.20000000000005,2945.8)">11.08</text>
    </g>
    <g id="hexes">
      <polygon id="hex0102" fill="none" stroke="black" stroke-width="3" points="50.0,259.8 100.0,346.4 200.0,346.4 250.0,259.8 200.0,173.2 100.0,173.2"></polygon>
      <polygon id="hex0103" fill="none" stroke="black" stroke-width="3" points="50.0,433.0 100.0,519.6 200.0,519.6 250.0,433.0 200.0,346.4 100.0,346.4"></polygon>
      <polygon id="hex0104" fill="none" stroke="black" stroke-width="3" points="50.0,606.2 100.0,692.8 200.0,692.8 250.0,606.2 200.0,519.6 100.0,519.6"></polygon>
      <polygon id="hex0105" fill="none" stroke="black" stroke-width="3" points="50.0,779.4 100.0,866.0 200.0,866.0 250.0,779.4 200.0,692.8 100.0,692.8"></polygon>
      <polygon id="hex0106" fill="none" stroke="black" stroke-width="3" points="50.0,952.6 100.0,1039.2 200.0,1039.2 250.0,952.6 200.0,866.0 100.0,866.0"></polygon>
      <polygon id="hex0107" fill="none" stroke="black" stroke-width="3" points="50.0,1125.8 100.0,1212.4 200.0,1212.4 250.0,1125.8 200.0,1039.2 100.0,1039.2"></polygon>
      <polygon id="hex0108" fill="none" stroke="black" stroke-width="3" points="50.0,1299.0 100.0,1385.6 200.0,1385.6 250.0,1299.0 200.0,1212.4 100.0,1212.4"></polygon>
      <polygon id="hex0201" fill="none" stroke="black" stroke-width="3" points="200.0,173.2 250.0,259.8 350.0,259.8 400.0,173.2 350.0,86.6 250.0,86.6"></polygon>
      <polygon id="hex0202" fill="none" stroke="black" stroke-width="3" points="200.0,346.4 250.0,433.0 350.0,433.0 400.0,346.4 350.0,259.8 250.0,259.8"></polygon>
      <polygon id="hex0203" fill="none" stroke="black" stroke-width="3" points="200.0,519.6 250.0,606.2 350.0,606.2 400.0,519.6 350.0,433.0 250.0,433.0"></polygon>
      <polygon id="hex0204" fill="none" stroke="black" stroke-width="3" points="200.0,692.8 250.0,779.4 350.0,779.4 400.0,692.8 350.0,606.2 250.0,606.2"></polygon>
      <polygon id="hex0205" fill="none" stroke="black" stroke-width="3" points="200.0,866.0 250.0,952.6 350.0,952.6 400.0,866.0 350.0,779.4 250.0,779.4"></polygon>
      <polygon id="hex0206" fill="none" stroke="black" stroke-width="3" points="200.0,1039.2 250.0,1125.8 350.0,1125.8 400.0,1039.2 350.0,952.6 250.0,952.6"></polygon>
      <polygon id="hex0207" fill="none" stroke="black" stroke-width="3" points="200.0,1212.4 250.0,1299.0 350.0,1299.0 400.0,1212.4 350.0,1125.8 250.0,1125.8"></polygon>
      <polygon id="hex0302" fill="none" stroke="black" stroke-width="3" points="350.0,259.8 400.0,346.4 500.0,346.4 550.0,259.8 500.0,173.2 400.0,173.2"></polygon>
      <polygon id="hex0303" fill="none" stroke="black" stroke-width="3" points="350.0,433.0 400.0,519.6 500.0,519.6 550.0,433.0 500.0,346.4 400.0,346.4"></polygon>
      <polygon id="hex0304" fill="none" stroke="black" stroke-width="3" points="350.0,606.2 400.0,692.8 500.0,692.8 550.0,606.2 500.0,519.6 400.0,519.6"></polygon>
      <polygon id="hex0305" fill="none" stroke="black" stroke-width="3" points="350.0,779.4 400.0,866.0 500.0,866.0 550.0,779.4 500.0,692.8 400.0,692.8"></polygon>
      <polygon id="hex0306" fill="none" stroke="black" stroke-width="3" points="350.0,952.6 400.0,1039.2 500.0,1039.2 550.0,952.6 500.0,866.0 400.0,866.0"></polygon>
      <polygon id="hex0307" fill="none" stroke="black" stroke-width="3" points="350.0,1125.8 400.0,1212.4 500.0,1212.4 550.0,1125.8 500.0,1039.2 400.0,1039.2"></polygon>
      <polygon id="hex0308" fill="none" stroke="black" stroke-width="3" points="350.0,1299.0 400.0,1385.6 500.0,1385.6 550.0,1299.0 500.0,1212.4 400.0,1212.4"></polygon>
      <polygon id="hex0401" fill="none" stroke="black" stroke-width="3" points="500.0,173.2 550.0,259.8 650.0,259.8 700.0,173.2 650.0,86.6 550.0,86.6"></polygon>
      <polygon id="hex0402" fill="none" stroke="black" stroke-width="3" points="500.0,346.4 550.0,433.0 650.0,433.0 700.0,346.4 650.0,259.8 550.0,259.8"></polygon>
      <polygon id="hex0403" fill="none" stroke="black" stroke-width="3" points="500.0,519.6 550.0,606.2 650.0,606.2 700.0,519.6 650.0,433.0 550.0,433.0"></polygon>
      <polygon id="hex0404" fill="none" stroke="black" stroke-width="3" points="500.0,692.8 550.0,779.4 650.0,779.4 700.0,692.8 650.0,606.2 550.0,606.2"></polygon>
      <polygon id="hex0405" fill="none" stroke="black" stroke-width="3" points="500.0,866.0 550.0,952.6 650.0,952.6 700.0,866.0 650.0,779.4 550.0,779.4"></polygon>
      <polygon id="hex0406" fill="none" stroke="black" stroke-width="3" points="500.0,1039.2 550.0,1125.8 650.0,1125.8 700.0,1039.2 650.0,952.6 550.0,952.6"></polygon>
      <polygon id="hex0407" fill="none" stroke="black" stroke-width="3" points="500.0,1212.4 550.0,1299.0 650.0,1299.0 700.0,1212.4 650.0,1125.8 550.0,1125.8"></polygon>
      <polygon id="hex0502" fill="none" stroke="black" stroke-width="3" points="650.0,259.8 700.0,346.4 800.0,346.4 850.0,259.8 800.0,173.2 700.0,173.2"></polygon>
      <polygon id="hex0503" fill="none" stroke="black" stroke-width="3" points="650.0,433.0 700.0,519.6 800.0,519.6 850.0,433.0 800.0,346.4 700.0,346.4"></polygon>
      <polygon id="hex0504" fill="none" stroke="black" stroke-width="3" points="650.0,606.2 700.0,692.8 800.0,692.8 850.0,606.2 800.0,519.6 700.0,519.6"></polygon>
      <polygon id="hex0505" fill="none" stroke="black" stroke-width="3" points="650.0,779.4 700.0,866.0 800.0,866.0 850.0,779.4 800.0,692.8 700.0,692.8"></polygon>
      <polygon id="hex0506" fill="none" stroke="black" stroke-width="3" points="650.0,952.6 700.0,1039.2 800.0,1039.2 850.0,952.6 800.0,866.0 700.0,866.0"></polygon>
      <polygon id="hex0507" fill="none" stroke="black" stroke-width="3" points="650.0,1125.8 700.0,1212.4 800.0,1212.4 850.0,1125.8 800.0,1039.2 700.0,1039.2"></polygon>
      <polygon id="hex0508" fill="none" stroke="black" stroke-width="3" points="650.0,1299.0 700.0,1385.6 800.0,1385.6 850.0,1299.0 800.0,1212.4 700.0,1212.4"></polygon>
      <polygon id="hex0601" fill="none" stroke="black" stroke-width="3" points="800.0,173.2 850.0,259.8 950.0,259.8 1000.0,173.2 950.0,86.6 850.0,86.6"></polygon>
      <polygon id="hex0602" fill="none" stroke="black" stroke-width="3" points="800.0,346.4 850.0,433.0 950.0,433.0 1000.0,346.4 950.0,259.8 850.0,259.8"></polygon>
      <polygon id="hex0603" fill="none" stroke="black" stroke-width="3" points="800.0,519.6 850.0,606.2 950.0,606.2 1000.0,519.6 950.0,433.0 850.0,433.0"></polygon>
      <polygon id="hex0604" fill="none" stroke="black" stroke-width="3" points="800.0,692.8 850.0,779.4 950.0,779.4 1000.0,692.8 950.0,606.2 850.0,606.2"></polygon>
      <polygon id="hex0605" fill="none" stroke="black" stroke-width="3" points="800.0,866.0 850.0,952.6 950.0,952.6 1000.0,866.0 950.0,779.4 850.0,779.4"></polygon>
      <polygon id="hex0606" fill="none" stroke="black" stroke-width="3" points="800.0,1039.2 850.0,1125.8 950.0,1125.8 1000.0,1039.2 950.0,952.6 850.0,952.6"></polygon>
      <polygon id="hex0607" fill="none" stroke="black" stroke-width="3" points="800.0,1212.4 850.0,1299.0 950.0,1299.0 1000.0,1212.4 950.0,1125.8 850.0,1125.8"></polygon>
      <polygon id="hex0702" fill="none" stroke="black" stroke-width="3" points="950.0,259.8 1000.0,346.4 1100.0,346.4 1150.0,259.8 1100.0,173.2 1000.0,173.2"></polygon>
      <polygon id="hex0703" fill="none" stroke="black" stroke-width="3" points="950.0,433.0 1000.0,519.6 1100.0,519.6 1150.0,433.0 1100.0,346.4 1000.0,346.4"></polygon>
      <polygon id="hex0704" fill="none" stroke="black" stroke-width="3" points="950.0,606.2 1000.0,692.8 1100.0,692.8 1150.0,606.2 1100.0,519.6 1000.0,519.6"></polygon>
      <polygon id="hex0705" fill="none" stroke="black" stroke-width="3" points="950.0,779.4 1000.0,866.0 1100.0,866.0 1150.0,779.4 1100.0,692.8 1000.0,692.8"></polygon>
      <polygon id="hex0706" fill="none" stroke="black" stroke-width="3" points="950.0,952.6 1000.0,1039.2 1100.0,1039.2 1150.0,952.6 1100.0,866.0 1000.0,866.0"></polygon>
      <polygon id="hex0707" fill="none" stroke="black" stroke-width="3" points="950.0,1125.8 1000.0,1212.4 1100.0,1212.4 1150.0,1125.8 1100.0,1039.2 1000.0,1039.2"></polygon>
      <polygon id="hex0708" fill="none" stroke="black" stroke-width="3" points="950.0,1299.0 1000.0,1385.6 1100.0,1385.6 1150.0,1299.0 1100.0,1212.4 1000.0,1212.4"></polygon>
      <polygon id="hex0801" fill="none" stroke="black" stroke-width="3" points="1100.0,173.2 1150.0,259.8 1250.0,259.8 1300.0,173.2 1250.0,86.6 1150.0,86.6"></polygon>
      <polygon id="hex0802" fill="none" stroke="black" stroke-width="3" points="1100.0,346.4 1150.0,433.0 1250.0,433.0 1300.0,346.4 1250.0,259.8 1150.0,259.8"></polygon>
      <polygon id="hex0803" fill="none" stroke="black" stroke-width="3" points="1100.0,519.6 1150.0,606.2 1250.0,606.2 1300.0,519.6 1250.0,433.0 1150.0,433.0"></polygon>
      <polygon id="hex0804" fill="none" stroke="black" stroke-width="3" points="1100.0,692.8 1150.0,779.4 1250.0,779.4 1300.0,692.8 1250.0,606.2 1150.0,606.2"></polygon>
      <polygon id="hex0805" fill="none" stroke="black" stroke-width="3" points="1100.0,866.0 1150.0,952.6 1250.0,952.6 1300.0,866.0 1250.0,779.4 1150.0,779.4"></polygon>
      <polygon id="hex0806" fill="none" stroke="black" stroke-width="3" points="1100.0,1039.2 1150.0,1125.8 1250.0,1125.8 1300.0,1039.2 1250.0,952.6 1150.0,952.6"></polygon>
      <polygon id="hex0807" fill="none" stroke="black" stroke-width="3" points="1100.0,1212.4 1150.0,1299.0 1250.0,1299.0 1300.0,1212.4 1250.0,1125.8 1150.0,1125.8"></polygon>
      <polygon id="hex0902" fill="none" stroke="black" stroke-width="3" points="1250.0,259.8 1300.0,346.4 1400.0,346.4 1450.0,259.8 1400.0,173.2 1300.0,173.2"></polygon>
      <polygon id="hex0903" fill="none" stroke="black" stroke-width="3" points="1250.0,433.0 1300.0,519.6 1400.0,519.6 1450.0,433.0 1400.0,346.4 1300.0,346.4"></polygon>
      <polygon id="hex0904" fill="none" stroke="black" stroke-width="3" points="1250.0,606.2 1300.0,692.8 1400.0,692.8 1450.0,606.2 1400.0,519.6 1300.0,519.6"></polygon>
      <polygon id="hex0905" fill="none" stroke="black" stroke-width="3" points="1250.0,779.4 1300.0,866.0 1400.0,866.0 1450.0,779.4 1400.0,692.8 1300.0,692.8"></polygon>
      <polygon id="hex0906" fill="none" stroke="black" stroke-width="3" points="1250.0,952.6 1300.0,1039.2 1400.0,1039.2 1450.0,952.6 1400.0,866.0 1300.0,866.0"></polygon>
      <polygon id="hex0907" fill="none" stroke="black" stroke-width="3" points="1250.0,1125.8 1300.0,1212.4 1400.0,1212.4 1450.0,1125.8 1400.0,1039.2 1300.0,1039.2"></polygon>
      <polygon id="hex0908" fill="none" stroke="black" stroke-width="3" points="1250.0,1299.0 1300.0,1385.6 1400.0,1385.6 1450.0,1299.0 1400.0,1212.4 1300.0,1212.4"></polygon>
      <polygon id="hex1001" fill="none" stroke="black" stroke-width="3" points="1400.0,173.2 1450.0,259.8 1550.0,259.8 1600.0,173.2 1550.0,86.6 1450.0,86.6"></polygon>
      <polygon id="hex1002" fill="none" stroke="black" stroke-width="3" points="1400.0,346.4 1450.0,433.0 1550.0,433.0 1600.0,346.4 1550.0,259.8 1450.0,259.8"></polygon>
      <polygon id="hex1003" fill="none" stroke="black" stroke-width="3" points="1400.0,519.6 1450.0,606.2 1550.0,606.2 1600.0,519.6 1550.0,433.0 1450.0,433.0"></polygon>
      <polygon id="hex1004" fill="none" stroke="black" stroke-width="3" points="1400.0,692.8 1450.0,779.4 1550.0,779.4 1600.0,692.8 1550.0,606.2 1450.0,606.2"></polygon>
      <polygon id="hex1005" fill="none" stroke="black" stroke-width="3" points="1400.0,866.0 1450.0,952.6 1550.0,952.6 1600.0,866.0 1550.0,779.4 1450.0,779.4"></polygon>
      <polygon id="hex1006" fill="none" stroke="black" stroke-width="3" points="1400.0,1039.2 1450.0,1125.8 1550.0,1125.8 1600.0,1039.2 1550.0,952.6 1450.0,952.6"></polygon>
      <polygon id="hex1007" fill="none" stroke="black" stroke-width="3" points="1400.0,1212.4 1450.0,1299.0 1550.0,1299.0 1600.0,1212.4 1550.0,1125.8 1450.0,1125.8"></polygon>
      <polygon id="hex1102" fill="none" stroke="black" stroke-width="3" points="1550.0,259.8 1600.0,346.4 1700.0,346.4 1750.0,259.8 1700.0,173.2 1600.0,173.2"></polygon>
      <polygon id="hex1103" fill="none" stroke="black" stroke-width="3" points="1550.0,433.0 1600.0,519.6 1700.0,519.6 1750.0,433.0 1700.0,346.4 1600.0,346.4"></polygon>
      <polygon id="hex1104" fill="none" stroke="black" stroke-width="3" points="1550.0,606.2 1600.0,692.8 1700.0,692.8 1750.0,606.2 1700.0,519.6 1600.0,519.6"></polygon>
      <polygon id="hex1105" fill="none" stroke="black" stroke-width="3" points="1550.0,779.4 1600.0,866.0 1700.0,866.0 1750.0,779.4 1700.0,692.8 1600.0,692.8"></polygon>
      <polygon id="hex1106" fill="none" stroke="black" stroke-width="3" points="1550.0,952.6 1600.0,1039.2 1700.0,1039.2 1750.0,952.6 1700.0,866.0 1600.0,866.0"></polygon>
      <polygon id="hex1107" fill="none" stroke="black" stroke-width="3" points="1550.0,1125.8 1600.0,1212.4 1700.0,1212.4 1750.0,1125.8 1700.0,1039.2 1600.0,1039.2"></polygon>
      <polygon id="hex1108" fill="none" stroke="black" stroke-width="3" points="1550.0,1299.0 1600.0,1385.6 1700.0,1385.6 1750.0,1299.0 1700.0,1212.4 1600.0,1212.4"></polygon>
    </g>
    <g id="line_labels">
      <g>
        <text font-size="20pt" dy="5px" stroke="white" stroke-width="5pt">
          <textPath href="#line1">Nach Restov</textPath>
        </text>
        <text font-size="20pt" dy="5px">
          <textPath href="#line1">Nach Restov</textPath>
        </text>
      </g>
      <g>
        <text font-size="20pt" dy="5px" stroke="white" stroke-width="5pt">
          <textPath href="#line3">Dorn</textPath>
        </text>
        <text font-size="20pt" dy="5px">
          <textPath href="#line3">Dorn</textPath>
        </text>
      </g>
      <g>
        <text font-size="20pt" dy="5px" stroke="white" stroke-width="5pt">
          <textPath href="#line5">Stinker</textPath>
        </text>
        <text font-size="20pt" dy="5px">
          <textPath href="#line5">Stinker</textPath>
        </text>
      </g>
    </g>
    <g id="labels">
      <g>
        <text text-anchor="middle" x="300.0" y="415.7" font-size="20pt" dy="5px" stroke="white" stroke-width="5pt" transform="matrix(6.123233995736766e-17,-1,1,6.123233995736766e-17,-49.69999999999999,649.7)">Bokken's Hut</text>
        <text text-anchor="middle" x="300.0" y="415.7" font-size="20pt" dy="5px" transform="matrix(6.123233995736766e-17,-1,1,6.123233995736766e-17,-49.69999999999999,649.7)">Bokken's Hut</text>
      </g>
      <g>
        <text text-anchor="middle" x="300.0" y="588.9" font-size="20pt" dy="5px" stroke="white" stroke-width="5pt" transform="matrix(6.123233995736766e-17,-1,1,6.123233995736766e-17,-222.89999999999998,822.8999999999999)">Oleg's Tpost</text>
        <text text-anchor="middle" x="300.0" y="588.9" font-size="20pt" dy="5px" transform="matrix(6.123233995736766e-17,-1,1,6.123233995736766e-17,-222.89999999999998,822.8999999999999)">Oleg's Tpost</text>
      </g>
      <g>
        <text text-anchor="middle" x="300.0" y="935.3" font-size="20pt" dy="5px" stroke="white" stroke-width="5pt" transform="matrix(6.123233995736766e-17,-1,1,6.123233995736766e-17,-569.3,1169.3)">Traps</text>
        <text text-anchor="middle" x="300.0" y="935.3" font-size="20pt" dy="5px" transform="matrix(6.123233995736766e-17,-1,1,6.123233995736766e-17,-569.3,1169.3)">Traps</text>
      </g>
      <g>
        <text text-anchor="middle" x="450.0" y="502.3" font-size="20pt" dy="5px" stroke="white" stroke-width="5pt" transform="matrix(6.123233995736766e-17,-1,1,6.123233995736766e-17,13.699999999999996,886.3)">SpiderLairH</text>
        <text text-anchor="middle" x="450.0" y="502.3" font-size="20pt" dy="5px" transform="matrix(6.123233995736766e-17,-1,1,6.123233995736766e-17,13.699999999999996,886.3)">SpiderLairH</text>
      </g>
      <g>
        <text text-anchor="middle" x="450.0" y="675.5" font-size="20pt" dy="5px" stroke="white" stroke-width="5pt" transform="matrix(6.123233995736766e-17,-1,1,6.123233995736766e-17,-159.5,1059.5)">MondR/OwlB</text>
        <text text-anchor="middle" x="450.0" y="675.5" font-size="20pt" dy="5px" transform="matrix(6.123233995736766e-17,-1,1,6.123233995736766e-17,-159.5,1059.5)">MondR/OwlB</text>
      </g>
      <g>
        <text text-anchor="middle" x="450.0" y="848.7" font-size="20pt" dy="5px" stroke="white" stroke-width="5pt" transform="matrix(6.123233995736766e-17,-1,1,6.123233995736766e-17,-332.70000000000005,1232.7)">Feys/Furt</text>
        <text text-anchor="middle" x="450.0" y="848.7" font-size="20pt" dy="5px" transform="matrix(6.123233995736766e-17,-1,1,6.123233995736766e-17,-332.70000000000005,1232.7)">Feys/Furt</text>
      </g>
      <g>
        <text text-anchor="middle" x="450.0" y="1195.1" font-size="20pt" dy="5px" stroke="white" stroke-width="5pt" transform="matrix(6.123233995736766e-17,-1,1,6.123233995736766e-17,-679.0999999999999,1579.1)">Dorn Quelle</text>
        <text text-anchor="middle" x="450.0" y="1195.1" font-size="20pt" dy="5px" transform="matrix(6.123233995736766e-17,-1,1,6.123233995736766e-17,-679.0999999999999,1579.1)">Dorn Quelle</text>
      </g>
      <g>
        <text text-anchor="middle" x="600.0" y="242.5" font-size="20pt" dy="5px" stroke="white" stroke-width="5pt" transform="matrix(6.123233995736766e-17,-1,1,6.123233995736766e-17,423.5,776.5)">Hydra Hort</text>
        <text text-anchor="middle" x="600.0" y="242.5" font-size="20pt" dy="5px" transform="matrix(6.123233995736766e-17,-1,1,6.123233995736766e-17,423.5,776.5)">Hydra Hort</text>
      </g>
      <g>
        <text text-anchor="middle" x="600.0" y="415.7" font-size="20pt" dy="5px" stroke="white" stroke-width="5pt" transform="matrix(6.123233995736766e-17,-1,1,6.123233995736766e-17,250.29999999999995,949.7)">Alte Eiche</text>
        <text text-anchor="middle" x="600.0" y="415.7" font-size="20pt" dy="5px" transform="matrix(6.123233995736766e-17,-1,1,6.123233995736766e-17,250.29999999999995,949.7)">Alte Eiche</text>
      </g>
      <g>
        <text text-anchor="middle" x="600.0" y="588.9" font-size="20pt" dy="5px" stroke="white" stroke-width="5pt" transform="matrix(6.123233995736766e-17,-1,1,6.123233995736766e-17,77.10000000000002,1122.9)">Grffns/GoldCave</text>
        <text text-anchor="middle" x="600.0" y="588.9" font-size="20pt" dy="5px" transform="matrix(6.123233995736766e-17,-1,1,6.123233995736766e-17,77.10000000000002,1122.9)">Grffns/GoldCave</text>
      </g>
      <g>
        <text text-anchor="middle" x="600.0" y="762.1" font-size="20pt" dy="5px" stroke="white" stroke-width="5pt" transform="matrix(6.123233995736766e-17,-1,1,6.123233995736766e-17,-96.10000000000002,1296.1)">Dornfurtlager</text>
        <text text-anchor="middle" x="600.0" y="762.1" font-size="20pt" dy="5px" transform="matrix(6.123233995736766e-17,-1,1,6.123233995736766e-17,-96.10000000000002,1296.1)">Dornfurtlager</text>
      </g>
      <g>
        <text text-anchor="middle" x="600.0" y="935.3" font-size="20pt" dy="5px" stroke="white" stroke-width="5pt" transform="matrix(6.123233995736766e-17,-1,1,6.123233995736766e-17,-269.29999999999995,1469.2999999999997)">TempleRuin</text>
        <text text-anchor="middle" x="600.0" y="935.3" font-size="20pt" dy="5px" transform="matrix(6.123233995736766e-17,-1,1,6.123233995736766e-17,-269.29999999999995,1469.2999999999997)">TempleRuin</text>
      </g>
      <g>
        <text text-anchor="middle" x="600.0" y="1108.5" font-size="20pt" dy="5px" stroke="white" stroke-width="5pt" transform="matrix(6.123233995736766e-17,-1,1,6.123233995736766e-17,-442.5,1642.5)">Stinker Quelle</text>
        <text text-anchor="middle" x="600.0" y="1108.5" font-size="20pt" dy="5px" transform="matrix(6.123233995736766e-17,-1,1,6.123233995736766e-17,-442.5,1642.5)">Stinker Quelle</text>
      </g>
      <g>
        <text text-anchor="middle" x="750.0" y="675.5" font-size="20pt" dy="5px" stroke="white" stroke-width="5pt" transform="matrix(6.123233995736766e-17,-1,1,6.123233995736766e-17,140.5,1359.5)">Canyon</text>
        <text text-anchor="middle" x="750.0" y="675.5" font-size="20pt" dy="5px" transform="matrix(6.123233995736766e-17,-1,1,6.123233995736766e-17,140.5,1359.5)">Canyon</text>
      </g>
      <g>
        <text text-anchor="middle" x="750.0" y="1021.9" font-size="20pt" dy="5px" stroke="white" stroke-width="5pt" transform="matrix(6.123233995736766e-17,-1,1,6.123233995736766e-17,-205.89999999999998,1705.8999999999999)">Frsche / Ruinen</text>
        <text text-anchor="middle" x="750.0" y="1021.9" font-size="20pt" dy="5px" transform="matrix(6.123233995736766e-17,-1,1,6.123233995736766e-17,-205.89999999999998,1705.8999999999999)">Frsche / Ruinen</text>
      </g>
    </g>
    <text x="50" y="-15" font-size="15pt" fill="#999999">
      <a xlink:href="http://www.busygamemaster.com/" style="fill: #8888ff">Gnomeyland SVG Map Icons</a> Copyright Gregory B. MacKenzie 2012, Alex Schroeder 2013-2016. This work is licensed under the 
      <a xlink:href="http://creativecommons.org/licenses/by-sa/3.0/" style="fill: #8888ff">Creative Commons Attribution-ShareAlike 3.0 Unported License</a>.
    </text>
  </g>
</svg>